<svg width="101" height="100" viewBox="0 0 101 100" fill="none" xmlns="http://www.w3.org/2000/svg">
<g clip-path="url(#clip0_800_550)">
<path d="M76.9375 0H23.8125C10.8683 0 0.375 10.4933 0.375 23.4375V76.5625C0.375 89.5067 10.8683 100 23.8125 100H76.9375C89.8817 100 100.375 89.5067 100.375 76.5625V23.4375C100.375 10.4933 89.8817 0 76.9375 0Z" fill="white"/>
<path d="M26.4688 6.5H74.2812C85.1026 6.5 93.875 15.2724 93.875 26.0938V73.9062C93.875 84.7276 85.1026 93.5 74.2812 93.5H26.4688C15.6474 93.5 6.875 84.7276 6.875 73.9062V26.0938C6.875 15.2724 15.6474 6.5 26.4688 6.5Z" fill="#FFBE63" stroke="#0A2A33" stroke-width="3"/>
<path d="M42.3442 59.8859H28.3942L25.5441 68.7358C25.4692 69.0733 25.1693 69.2983 24.8318 69.2611H17.7816C17.3692 69.2611 17.2567 69.0361 17.3692 68.5861L29.4443 33.9733C29.5568 33.5986 29.6693 33.2611 29.8191 32.8111C29.9692 32.0236 30.0441 31.1984 30.0441 30.3733C30.0068 30.1859 30.1566 29.9986 30.344 29.9609H40.0566C40.3192 29.9609 40.5066 30.0734 40.5442 30.2608L54.2316 68.5108C54.3441 68.9236 54.2316 69.1109 53.8568 69.1109H46.0191C45.7568 69.1486 45.4942 68.9608 45.4193 68.6986L42.3442 59.6986V59.8859ZM30.5693 52.4233H40.0942C39.8692 51.6358 39.569 50.6986 39.2315 49.7233C38.894 48.7108 38.5565 47.6234 38.219 46.4984C37.8442 45.3358 37.5067 44.2108 37.1316 43.0486C36.7565 41.8863 36.4193 40.7986 36.1191 39.7108C35.8192 38.6611 35.5566 37.6858 35.294 36.7858H35.2191C34.8816 38.3984 34.4692 40.0111 33.944 41.6233C33.3815 43.4233 32.819 45.2986 32.2192 47.1734C31.7316 49.0859 31.1315 50.8483 30.5693 52.4233ZM76.3192 56.5109H64.4318C64.5816 57.6736 64.9567 58.8358 65.5941 59.8483C66.2691 60.8608 67.2067 61.6483 68.3317 62.0983C69.8318 62.7361 71.4817 63.0736 73.1316 63.0359C74.4443 62.9983 75.7567 62.8858 77.0318 62.6236C78.1755 62.4739 79.2963 62.1842 80.3692 61.7608C80.5566 61.6111 80.6691 61.6859 80.6691 62.0611V67.7986C80.6691 67.9483 80.6318 68.0984 80.5942 68.2486C80.5193 68.3611 80.4441 68.4359 80.3316 68.5108C79.1323 69.0376 77.873 69.4154 76.5818 69.6358C74.8276 69.9733 73.0427 70.1241 71.2567 70.0858C68.4066 70.0858 66.0068 69.6358 64.0567 68.7734C62.2191 67.9859 60.6068 66.7484 59.3317 65.2111C58.1444 63.7663 57.264 62.0947 56.7442 60.2983C56.2193 58.5359 55.9567 56.6983 55.9567 54.8234C55.9567 52.7984 56.2566 50.8111 56.8943 48.8609C57.4921 46.9833 58.4471 45.2388 59.7068 43.7236C60.9443 42.2234 62.4817 41.0236 64.2441 40.1608C66.0068 39.2984 68.1067 38.9986 70.5068 38.9986C72.4942 38.9609 74.4816 39.3361 76.3192 40.1608C77.8566 40.8358 79.2066 41.8483 80.2567 43.1611C81.2316 44.4358 82.0191 45.8611 82.5067 47.4361C82.9943 48.9358 83.2193 50.4736 83.2193 52.0109C83.2193 52.9109 83.1817 53.6984 83.1441 54.4111C83.0692 55.1233 83.0316 55.6486 82.9943 55.9861C82.9567 56.2483 82.7317 56.4733 82.4691 56.4733C82.2441 56.4733 81.8317 56.5109 81.2316 56.5486C80.6318 56.6234 79.9192 56.6611 79.0568 56.6611C78.1941 56.6611 77.2941 56.5109 76.3192 56.5109ZM64.4318 51.0361H72.3441C73.3193 51.0361 74.0316 51.0361 74.4816 50.9984C74.7818 50.9608 75.0817 50.8859 75.3443 50.6986V50.3234C75.3455 49.8517 75.2695 49.383 75.1193 48.9358C74.4443 46.8359 72.4566 45.4111 70.2442 45.4859C69.2265 45.4289 68.214 45.6677 67.3289 46.1734C66.4439 46.6792 65.7242 47.4303 65.2566 48.3361C64.8066 49.1984 64.5443 50.0984 64.4318 51.0361Z" fill="#0A2A33"/>
</g>
<defs>
<clipPath id="clip0_800_550">
<rect width="100" height="100" fill="white" transform="translate(0.375)"/>
</clipPath>
</defs>
</svg>
