<svg width="101" height="100" viewBox="0 0 101 100" fill="none" xmlns="http://www.w3.org/2000/svg">
<g clip-path="url(#clip0_799_478)">
<path d="M18.5955 0H83.1545C92.9125 0 100.875 8.08647 100.875 18.1745V81.8255C100.875 91.8335 92.9905 100 83.1545 100H18.5955C8.75946 99.9199 0.875 91.8335 0.875 81.7454V18.1745C0.875 8.08647 8.75946 0 18.5955 0Z" fill="white"/>
<path d="M21.8232 7.5H79.9268C87.8847 7.50013 94.3749 13.9287 94.375 21.9482V77.8037C94.3748 85.7615 87.9462 92.2518 79.9268 92.252H21.835C13.7997 92.188 7.3752 85.7549 7.375 77.7334V21.9482C7.37513 13.9244 13.7994 7.50013 21.8232 7.5Z" fill="#FFBE63" stroke="#0A2A33" stroke-width="3"/>
<path d="M49.3641 58.4823H35.3828L32.5725 67.2645C32.5023 67.6157 32.2213 67.8265 31.87 67.7563H24.8442C24.4227 67.7563 24.3524 67.5455 24.4227 67.0537L36.507 32.3464C36.6475 31.9951 36.7177 31.5736 36.8583 31.0818C36.9988 30.309 37.069 29.4659 37.069 28.6228C36.9988 28.412 37.2095 28.2715 37.3501 28.2012H47.0456C47.3266 28.2012 47.4672 28.3417 47.5374 28.4823L61.2377 67.0537C61.3782 67.4752 61.2377 67.686 60.8864 67.686H53.0175C52.7365 67.7563 52.5257 67.5455 52.3852 67.2645L49.3641 58.4823ZM37.5608 50.8242H47.0456C46.8348 50.0513 46.5538 49.0677 46.2025 48.1544C45.8512 47.1708 45.4999 46.0467 45.2189 44.9225C44.8676 43.7282 44.5163 42.604 44.1651 41.4799C43.8138 40.2855 43.4625 39.2317 43.1814 38.1778C42.9004 37.1239 42.6194 36.1403 42.3384 35.227H42.2681C41.9168 36.8429 41.4953 38.4588 41.0035 40.0748C40.4414 41.9015 39.8793 43.7282 39.247 45.6251C38.685 47.5221 38.1229 49.2785 37.5608 50.8242ZM69.5983 34.8757C68.3337 34.946 67.1393 34.4542 66.2962 33.5408C65.4531 32.6275 64.9613 31.3628 65.0316 30.0982C64.9613 28.8335 65.4531 27.6392 66.3665 26.7961C67.2798 25.953 68.4742 25.4612 69.6686 25.4612C71.144 25.4612 72.2681 25.8827 73.1112 26.7961C73.9543 27.7094 74.3758 28.9038 74.3758 30.0982C74.4461 31.3628 73.9543 32.6275 73.0409 33.5408C72.1276 34.4542 70.8629 34.946 69.5983 34.8757ZM65.3828 67.405V38.5291C65.3828 38.1778 65.5234 38.0373 65.8747 38.0373H73.322C73.6732 38.0373 73.8138 38.2481 73.8138 38.5291V67.405C73.8138 67.8265 73.6732 68.0373 73.322 68.0373H65.9449C65.5936 67.967 65.3828 67.7563 65.3828 67.405Z" fill="#0A2A33"/>
</g>
<defs>
<clipPath id="clip0_799_478">
<rect width="100" height="100" fill="white" transform="translate(0.875)"/>
</clipPath>
</defs>
</svg>
