<svg width="101" height="101" viewBox="0 0 101 101" fill="none" xmlns="http://www.w3.org/2000/svg">
<g clip-path="url(#clip0_800_539)">
<path d="M76.6875 0.666748H23.5625C10.6183 0.666748 0.125 11.1601 0.125 24.1042V77.2292C0.125 90.1734 10.6183 100.667 23.5625 100.667H76.6875C89.6317 100.667 100.125 90.1734 100.125 77.2292V24.1042C100.125 11.1601 89.6317 0.666748 76.6875 0.666748Z" fill="white"/>
<path d="M26.2188 7.16675H74.0312C84.8526 7.16675 93.625 15.9392 93.625 26.7605V74.573C93.625 85.3943 84.8526 94.1667 74.0312 94.1667H26.2188C15.3974 94.1667 6.625 85.3943 6.625 74.573V26.7605C6.625 15.9392 15.3974 7.16675 26.2188 7.16675Z" fill="#FFBE63" stroke="#0A2A33" stroke-width="3"/>
<path d="M51.8058 54.3684C51.9454 51.8646 53.1657 49.6585 55.0064 48.0948C56.8117 46.5588 59.2417 45.6201 61.8932 45.6201C64.5419 45.6201 66.9719 46.5588 68.7782 48.0948C70.6179 49.6585 71.8382 51.8646 71.9792 54.3656C72.1188 56.9383 71.0897 59.3282 69.2845 61.1001C67.4433 62.9022 64.8252 64.0329 61.8932 64.0329C58.9612 64.0329 56.3375 62.9022 54.4977 61.1001C52.6914 59.3282 51.6648 56.9383 51.8058 54.3684Z" fill="white"/>
<path d="M35.7421 59.428C35.7593 60.4078 36.0701 62.3118 36.5366 63.799C37.5175 66.9461 39.1804 69.8578 41.494 72.4238C43.8688 75.0616 46.7928 77.1801 50.1702 78.6841C53.7203 80.2637 57.5667 81.0688 61.5623 81.0621C65.5511 81.0568 69.3975 80.2359 72.9476 78.6444C76.3251 77.1256 79.2466 74.998 81.6171 72.3591C83.9297 69.7822 85.5901 66.8653 86.5731 63.7181C87.0633 62.1501 87.3758 60.532 87.5048 58.8943C87.6274 57.2966 87.5758 55.6904 87.3508 54.1039C86.9106 50.9922 85.8391 48.0725 84.1892 45.4112C82.6806 42.9657 80.7354 40.8247 78.4228 39.0226L78.4281 39.0184L55.0893 21.0124C55.0682 20.9962 55.0513 20.979 55.0288 20.9646C53.4974 19.7833 50.9226 19.7875 49.2386 20.9713C47.536 22.1683 47.3412 24.1476 48.8564 25.3964L48.8498 25.4031L58.5842 33.3568L28.9148 33.3884H28.8754C26.4229 33.3913 24.0657 35.0077 23.5991 37.051C23.1196 39.1323 24.785 40.8588 27.3348 40.8683L27.331 40.8774L42.3691 40.8482L15.5343 61.5451C15.5002 61.5704 15.4633 61.5968 15.4316 61.6221C12.9004 63.5697 12.0819 66.8083 13.6763 68.8579C15.2945 70.9423 18.7353 70.9462 21.2929 68.8699L35.9386 56.8261C35.9386 56.8261 35.7249 58.452 35.7421 59.428ZM73.3758 64.8726C70.3583 67.9618 66.1336 69.7136 61.5623 69.7228C56.9842 69.7309 52.7595 67.9949 49.742 64.9109C48.2676 63.408 47.1841 61.679 46.5161 59.8372C45.8586 58.0238 45.6059 56.0886 45.7757 54.1672C45.935 52.2726 46.4964 50.4652 47.3925 48.8301C48.2728 47.2224 49.485 45.7701 50.982 44.5414C53.9154 42.1395 57.6497 40.8391 61.5556 40.8338C65.4653 40.8286 69.1971 42.1167 72.1334 44.5108C73.6275 45.7343 74.8387 47.1816 75.719 48.7862C76.6273 50.4313 77.1803 52.2488 77.3421 54.1211C77.5093 56.0413 77.2557 57.9748 76.5989 59.7869C75.9296 61.634 74.8503 63.363 73.3758 64.8726Z" fill="#0A2A33"/>
</g>
<defs>
<clipPath id="clip0_800_539">
<rect width="100" height="100" fill="white" transform="translate(0.125 0.666748)"/>
</clipPath>
</defs>
</svg>
