<svg width="101" height="101" viewBox="0 0 101 101" fill="none" xmlns="http://www.w3.org/2000/svg">
<g clip-path="url(#clip0_801_591)">
<rect x="0.875" y="0.333252" width="100" height="100" rx="20" fill="white"/>
<rect x="7.375" y="6.83325" width="87" height="87" rx="18.5" fill="#FFBE63" stroke="#0A2A33" stroke-width="3"/>
<path fill-rule="evenodd" clip-rule="evenodd" d="M31.6934 47.5096C28.2884 47.5096 25.5603 48.4621 23.509 50.3671C21.4578 52.2684 20.4321 55.0509 20.4321 58.7146V76.1859C20.4321 79.8834 21.4203 82.6659 23.3965 84.5334C25.3728 86.4009 28.009 87.3346 31.3053 87.3346C33.4653 87.3346 35.3703 86.9146 37.0203 86.0746C38.7078 85.2309 40.0259 83.9671 40.9746 82.2834C41.9309 80.5959 42.4071 78.5071 42.4034 76.0171C42.4034 75.4424 41.9375 74.9765 41.3628 74.9765H36.5309C35.9841 74.9765 35.5409 75.4197 35.5409 75.9665C35.5409 77.6502 35.1921 78.9309 34.4946 79.8084C33.7971 80.6859 32.809 81.1265 31.5303 81.1302C30.1353 81.0927 29.0909 80.5977 28.3971 79.6452C27.6996 78.689 27.3509 77.279 27.3509 75.4152V59.8171C27.3509 57.7659 27.6621 56.2452 28.2846 55.2552C28.9484 54.2652 30.0303 53.7702 31.5303 53.7702C32.734 53.7702 33.7034 54.1921 34.4384 55.0359C35.1696 55.8759 35.5353 57.1752 35.5353 58.934C35.5353 59.5708 36.0515 60.0871 36.6884 60.0871H41.2503C41.9151 60.0871 42.454 59.5482 42.454 58.8834C42.454 56.3559 41.9984 54.2484 41.0871 52.5609C40.2667 50.9408 38.961 49.6174 37.3521 48.7752C35.7771 47.9315 33.8909 47.5096 31.6934 47.5096ZM55.3971 47.4534C53.1996 47.4534 51.3134 47.9109 49.7384 48.8259C48.2142 49.7277 46.9759 51.0419 46.1665 52.6171C45.2901 54.3521 44.8554 56.2764 44.9009 58.2196C44.9009 61.0434 45.4503 63.2596 46.549 64.8684C47.689 66.4434 49.5021 67.8159 51.9884 68.9859L54.6265 70.1952C56.2765 70.8927 57.4484 71.699 58.1421 72.614C58.8396 73.529 59.1884 74.7196 59.1884 76.1859C59.1884 77.9784 58.8771 79.2965 58.2546 80.1402C57.6659 80.9802 56.6759 81.4002 55.2846 81.4002C53.9346 81.4002 52.909 80.9427 52.2078 80.0277C51.9686 79.7137 51.7663 79.3404 51.6007 78.9078C50.9674 77.2537 49.6546 75.7977 47.8835 75.7977C46.036 75.7977 44.4996 77.3296 44.8597 79.1416C45.286 81.2868 46.106 83.0296 47.3196 84.3702C49.1159 86.3465 51.7165 87.3346 55.1215 87.3346C58.5265 87.3346 61.1815 86.3634 63.0865 84.4209C64.9915 82.4784 65.944 79.6959 65.944 76.0734C65.944 73.0359 65.3215 70.619 64.0765 68.8227C62.8278 67.0265 60.8684 65.5452 58.1984 64.379L55.6671 63.2765C54.2046 62.654 53.1621 61.9396 52.5396 61.1334C51.9209 60.3309 51.6096 59.2509 51.6059 57.8934C51.6059 56.3934 51.9171 55.2759 52.5396 54.5409C53.1959 53.8096 54.1484 53.444 55.3971 53.444C56.7471 53.444 57.6996 53.8827 58.2546 54.7602C58.4393 55.0372 58.5984 55.3582 58.7318 55.723C59.3166 57.3212 60.5832 58.7146 62.285 58.7146C64.075 58.7146 65.5564 57.2205 65.1949 55.4674C64.7609 53.3619 63.9474 51.6619 62.7546 50.3671C60.9996 48.4246 58.5471 47.4534 55.3971 47.4534ZM78.2178 47.4534C76.024 47.4534 74.1378 47.9109 72.559 48.8259C71.0369 49.7285 69.8007 51.0427 68.9928 52.6171C68.1164 54.3521 67.6816 56.2764 67.7271 58.2196C67.7271 61.0434 68.2765 63.2596 69.3752 64.8684C70.5115 66.4434 72.3246 67.8159 74.8146 68.9859L77.4528 70.1952C79.0953 70.8927 80.2671 71.699 80.9684 72.614C81.6621 73.529 82.009 74.7196 82.009 76.1859C82.009 77.9784 81.6978 79.2965 81.0753 80.1402C80.4903 80.9802 79.5021 81.4002 78.1109 81.4002C76.7571 81.404 75.7315 80.9465 75.034 80.0277C74.7942 79.7144 74.5914 79.3422 74.4256 78.9109C73.7897 77.257 72.4785 75.7977 70.7065 75.7977C68.8608 75.7977 67.3259 77.3281 67.6853 79.1385C68.1114 81.2851 68.9316 83.029 70.1459 84.3702C71.9421 86.3465 74.5409 87.3346 77.9421 87.3346C81.3509 87.3346 84.0078 86.3634 85.9128 84.4209C87.814 82.4821 88.7646 79.6996 88.7646 76.0734C88.7646 73.0359 88.1421 70.619 86.8971 68.8227C85.6521 67.0265 83.6928 65.5452 81.019 64.379L78.4934 63.2765C77.0309 62.654 75.9884 61.9396 75.3659 61.1334C74.7434 60.3309 74.4321 59.2509 74.4321 57.8934C74.4321 56.3934 74.7415 55.2759 75.3602 54.5409C76.024 53.8096 76.9765 53.444 78.2178 53.444C79.5715 53.444 80.524 53.8827 81.0753 54.7602C81.2606 55.0382 81.4203 55.3604 81.5544 55.7268C82.1392 57.3241 83.4069 58.7146 85.1079 58.7146C86.8997 58.7146 88.3827 57.2189 88.0205 55.4641C87.5863 53.3602 86.773 51.6612 85.5809 50.3671C83.8184 48.4246 81.364 47.4534 78.2178 47.4534Z" fill="#0A2A33"/>
</g>
<defs>
<clipPath id="clip0_801_591">
<rect width="100" height="100" fill="white" transform="translate(0.875 0.333252)"/>
</clipPath>
</defs>
</svg>
