<svg width="101" height="101" viewBox="0 0 101 101" fill="none" xmlns="http://www.w3.org/2000/svg">
<g clip-path="url(#clip0_799_492)">
<path d="M0.375 23.2695C0.375 10.7863 10.4946 0.666748 22.9777 0.666748H77.7723C90.2554 0.666748 100.375 10.7863 100.375 23.2695V78.064C100.375 90.5472 90.2554 100.667 77.7723 100.667H22.9777C10.4946 100.667 0.375 90.5472 0.375 78.064V23.2695Z" fill="white"/>
<path d="M25.7178 7.16675H75.0322C85.4386 7.16675 93.875 15.6031 93.875 26.0095V75.324C93.875 85.7304 85.4386 94.1667 75.0322 94.1667H25.7178C15.3114 94.1667 6.875 85.7304 6.875 75.324V26.0095C6.875 15.6031 15.3114 7.16675 25.7178 7.16675Z" fill="#FFBE63" stroke="#0A2A33" stroke-width="3"/>
<path d="M45.5979 65.6154C42.2955 73.359 39.4134 75.4784 33.115 75.4784C26.8167 75.4784 21.7109 70.3726 21.7109 64.0743C21.7109 57.776 26.8167 51.8997 33.115 51.8997C49.913 53.1325 50.5272 54.0572 45.5979 65.6154Z" fill="white"/>
<path d="M55.2204 65.6154C58.5229 73.359 61.405 75.4784 67.7033 75.4784C74.0016 75.4784 79.1074 70.3726 79.1074 64.0743C79.1074 57.776 74.0016 51.8997 67.7033 51.8997C50.9054 53.1325 50.2912 54.0572 55.2204 65.6154Z" fill="#A96D18"/>
<path d="M57.6722 43.7167C62.959 37.1655 63.4772 33.6257 60.5204 28.0646C57.5635 22.5035 50.6583 20.3924 45.0972 23.3493C39.5361 26.3062 36.7447 33.5731 39.7016 39.1342C48.6763 53.3871 49.7811 53.4953 57.6722 43.7167Z" fill="#0A2A33"/>
</g>
<defs>
<clipPath id="clip0_799_492">
<rect width="100" height="100" fill="white" transform="translate(0.375 0.666748)"/>
</clipPath>
</defs>
</svg>
