<svg width="101" height="101" viewBox="0 0 101 101" fill="none" xmlns="http://www.w3.org/2000/svg">
<g clip-path="url(#clip0_801_606)">
<rect x="0.625" y="0.333252" width="100" height="100" rx="20" fill="white"/>
<rect x="7.125" y="6.83325" width="87" height="87" rx="18.5" fill="#FFBE63" stroke="#0A2A33" stroke-width="3"/>
<path d="M70.4248 50.8958C70.4248 46.2358 66.6472 42.4583 61.9873 42.4583C57.3274 42.4583 53.5498 46.2358 53.5498 50.8958C53.5498 55.5557 57.3274 59.3333 61.9873 59.3333C66.6472 59.3333 70.4248 55.5557 70.4248 50.8958ZM76.0498 50.8958C76.0498 58.6623 69.7538 64.9583 61.9873 64.9583C54.2208 64.9583 47.9248 58.6623 47.9248 50.8958C47.9248 43.1292 54.2208 36.8333 61.9873 36.8333C69.7538 36.8333 76.0498 43.1292 76.0498 50.8958Z" fill="#0A2A33"/>
<path d="M47.9248 64.9583H39.4873C37.2495 64.9583 35.1041 65.8478 33.5217 67.4302C31.9394 69.0125 31.0498 71.158 31.0498 73.3958C31.0498 75.6335 31.9394 77.779 33.5217 79.3613C35.1041 80.9437 37.2495 81.8333 39.4873 81.8333L40.3223 81.793C42.2535 81.601 44.0686 80.7457 45.4529 79.3613C47.0352 77.779 47.9248 75.6335 47.9248 73.3958V64.9583ZM70.3845 27.5608C70.1926 25.6296 69.3372 23.8145 67.9529 22.4302C66.3705 20.8478 64.2251 19.9583 61.9873 19.9583H53.5498V36.8333H61.9873C64.2251 36.8333 66.3705 35.9437 67.9529 34.3613C69.5352 32.779 70.4248 30.6335 70.4248 28.3958L70.3845 27.5608ZM31.0498 50.8958C31.0498 53.1335 31.9394 55.279 33.5217 56.8613C35.1041 58.4437 37.2495 59.3333 39.4873 59.3333H47.9248V42.4583H39.4873C37.2495 42.4583 35.1041 43.3478 33.5217 44.9302C31.9394 46.5125 31.0498 48.658 31.0498 50.8958ZM31.0498 28.3958C31.0498 30.6335 31.9394 32.779 33.5217 34.3613C35.1041 35.9437 37.2495 36.8333 39.4873 36.8333H47.9248V19.9583H39.4873C37.2495 19.9583 35.1041 20.8478 33.5217 22.4302C31.9394 24.0125 31.0498 26.158 31.0498 28.3958ZM76.0315 29.0916C75.8594 32.5678 74.4027 35.8656 71.9299 38.3384C69.2927 40.9756 65.7169 42.4583 61.9873 42.4583H53.5498V73.3958C53.5498 77.1254 52.0672 80.7011 49.4299 83.3384C46.9572 85.8111 43.6594 87.2678 40.1831 87.4399L39.4873 87.4583C35.7577 87.4583 32.1819 85.9756 29.5447 83.3384C26.9074 80.7011 25.4248 77.1254 25.4248 73.3958C25.4248 69.6661 26.9074 66.0904 29.5447 63.4531C30.0187 62.9791 30.5233 62.5432 31.0535 62.1458C30.5233 61.7483 30.0187 61.3124 29.5447 60.8384C26.9074 58.2011 25.4248 54.6254 25.4248 50.8958C25.4248 47.1661 26.9074 43.5904 29.5447 40.9531C30.0187 40.4791 30.5233 40.0432 31.0535 39.6458C30.5233 39.2483 30.0187 38.8124 29.5447 38.3384C26.9074 35.7011 25.4248 32.1254 25.4248 28.3958C25.4248 24.6661 26.9074 21.0904 29.5447 18.4531C32.1819 15.8159 35.7577 14.3333 39.4873 14.3333H61.9873C65.7169 14.3333 69.2927 15.8159 71.9299 18.4531C74.5672 21.0904 76.0498 24.6661 76.0498 28.3958L76.0315 29.0916Z" fill="#0A2A33"/>
</g>
<defs>
<clipPath id="clip0_801_606">
<rect width="100" height="100" fill="white" transform="translate(0.625 0.333252)"/>
</clipPath>
</defs>
</svg>
