<svg width="101" height="101" viewBox="0 0 101 101" fill="none" xmlns="http://www.w3.org/2000/svg">
<g clip-path="url(#clip0_800_558)">
<path d="M83.7734 0.333252H16.9766C7.80777 0.333252 0.375 7.95661 0.375 17.3605V83.306C0.375 92.7099 7.80777 100.333 16.9766 100.333H83.7734C92.9422 100.333 100.375 92.7099 100.375 83.306V17.3605C100.375 7.95661 92.9422 0.333252 83.7734 0.333252Z" fill="white"/>
<path d="M20.3164 6.83325H80.4336C87.8214 6.83325 93.8748 12.9865 93.875 20.6575V80.009C93.8748 87.68 87.8214 93.8333 80.4336 93.8333H20.3164C12.9286 93.8333 6.87516 87.68 6.875 80.009V20.6575C6.87516 12.9865 12.9286 6.83325 20.3164 6.83325Z" fill="#FFBE63" stroke="#0A2A33" stroke-width="3"/>
<path d="M19.125 14.8333L24.6638 77.3955L50.715 85.0332L76.9242 77.399L82.305 14.8333H19.125ZM68.437 36.0617H40.4482L41.052 43.1379H68.0684L65.8712 66.181L50.9677 71.0283L35.9414 65.9213L34.9305 55.63H42.0348L42.5964 60.5826L51.0204 63.4432L59.2548 60.7651L60.2973 50.2176H34.6252L32.6525 28.9821H69.1987L68.437 36.0617Z" fill="#0A2A33"/>
</g>
<defs>
<clipPath id="clip0_800_558">
<rect width="100" height="100" fill="white" transform="translate(0.375 0.333252)"/>
</clipPath>
</defs>
</svg>
