<svg width="101" height="100" viewBox="0 0 101 100" fill="none" xmlns="http://www.w3.org/2000/svg">
<g clip-path="url(#clip0_799_470)">
<path d="M84.0234 0H17.2266C8.05777 0 0.625 7.62336 0.625 17.0272V82.9728C0.625 92.3766 8.05777 100 17.2266 100H84.0234C93.1922 100 100.625 92.3766 100.625 82.9728V17.0272C100.625 7.62336 93.1922 0 84.0234 0Z" fill="white"/>
<path d="M20.5664 7.5H80.6836C88.1071 7.5 94.125 13.5179 94.125 20.9414V78.8086C94.125 86.2321 88.1071 92.25 80.6836 92.25H20.5664C13.1429 92.25 7.125 86.2321 7.125 78.8086V20.9414C7.125 13.5179 13.1429 7.5 20.5664 7.5Z" fill="#FFBE63" stroke="#0A2A33" stroke-width="3"/>
<path d="M38.1924 32.1343V70.4282C38.1924 70.8291 38.012 71.0296 37.6512 71.0296H30.3771C30.056 71.0296 29.8958 70.8291 29.8965 70.4282V32.1343C29.8965 31.8139 30.0768 31.6536 30.4373 31.6533H37.7115C37.7726 31.6447 37.8349 31.6494 37.8941 31.6673C37.9532 31.6852 38.0078 31.7157 38.0539 31.7568C38.1 31.7979 38.1367 31.8485 38.1613 31.9052C38.1859 31.9618 38.1978 32.0232 38.1963 32.085L38.1924 32.1343ZM60.1009 71.6268L59.7138 71.6306C56.9468 71.6728 54.2053 71.0979 51.6884 69.9475C49.3437 68.8623 47.3837 67.0909 46.0676 64.8676C44.7379 62.6589 44.0569 59.9063 44.0247 56.6098L44.0236 56.3612C44.0011 53.6021 44.7062 50.8858 46.068 48.4861C47.4329 46.1073 49.4236 44.148 51.8239 42.8211L52.0192 42.7147C54.6236 41.272 57.7697 40.5507 61.4574 40.5507L61.5351 40.551L61.7077 40.5549L61.903 40.5626L62.1211 40.5738L62.3616 40.5888L62.6245 40.6081L63.2185 40.6567L63.3809 40.6707V28.8284C63.3809 28.5481 63.5011 28.4077 63.7415 28.4073H71.3163C71.3653 28.4003 71.4153 28.4047 71.4622 28.4204C71.5092 28.436 71.5518 28.4624 71.5868 28.4974C71.6218 28.5323 71.6482 28.575 71.6638 28.622C71.6794 28.6689 71.6839 28.7189 71.6769 28.7678V64.2966C71.6792 65.0389 71.7094 65.7808 71.7672 66.5209L71.8239 67.2959L71.874 68.0173L71.9174 68.6849C71.9248 68.8098 71.8944 68.934 71.83 69.0413C71.7657 69.1486 71.6705 69.234 71.5568 69.2863C69.6027 70.1011 67.5673 70.7056 65.4851 71.0894C63.7085 71.4176 61.9073 71.5973 60.1009 71.6268ZM63.3813 64.1762V47.7646C63.0564 47.6766 62.7247 47.6163 62.3896 47.5843C61.9801 47.5429 61.5687 47.5228 61.1571 47.5241C59.698 47.5098 58.2565 47.8392 56.949 48.4861C55.6756 49.1195 54.5882 50.0723 53.793 51.2515C52.971 52.4536 52.5602 54.0366 52.5604 56.0007C52.5313 57.311 52.7453 58.6154 53.1916 59.8478C53.5549 60.8409 54.1293 61.7434 54.875 62.4931C55.5888 63.1829 56.4532 63.6974 57.3999 63.9959C58.3998 64.3196 59.4448 64.482 60.4958 64.4772C61.0566 64.4772 61.5776 64.4571 62.0588 64.4167C62.4427 64.3878 62.8232 64.3245 63.1958 64.2276L63.3813 64.1762Z" fill="#0A2A33"/>
</g>
<defs>
<clipPath id="clip0_799_470">
<rect width="100" height="100" fill="white" transform="translate(0.625)"/>
</clipPath>
</defs>
</svg>
