<svg width="101" height="101" viewBox="0 0 101 101" fill="none" xmlns="http://www.w3.org/2000/svg">
<g clip-path="url(#clip0_799_504)">
<path d="M0.875 23.2695C0.875 10.7863 10.9946 0.666748 23.4777 0.666748H78.2723C90.7554 0.666748 100.875 10.7863 100.875 23.2695V78.064C100.875 90.5472 90.7554 100.667 78.2723 100.667H23.4777C10.9946 100.667 0.875 90.5472 0.875 78.064V23.2695Z" fill="white"/>
<path d="M26.2178 7.16675H75.5322C85.9386 7.16675 94.375 15.6031 94.375 26.0095V75.324C94.375 85.7304 85.9386 94.1667 75.5322 94.1667H26.2178C15.8114 94.1667 7.375 85.7304 7.375 75.324V26.0095C7.375 15.6031 15.8114 7.16675 26.2178 7.16675Z" fill="#FFBE63" stroke="#0A2A33" stroke-width="3"/>
<mask id="mask0_799_504" style="mask-type:alpha" maskUnits="userSpaceOnUse" x="30" y="12" width="56" height="57">
<path d="M58.0752 12.8667C73.4838 12.8669 85.9746 25.3585 85.9746 40.7671C85.9744 56.1755 73.4836 68.6663 58.0752 68.6665C42.6666 68.6665 30.175 56.1757 30.1748 40.7671C30.1748 25.3583 42.6665 12.8667 58.0752 12.8667ZM58.0752 30.8667C52.6076 30.8667 48.1748 35.2995 48.1748 40.7671C48.175 46.2346 52.6077 50.6665 58.0752 50.6665C63.5426 50.6664 67.9744 46.2345 67.9746 40.7671C67.9746 35.2995 63.5427 30.8668 58.0752 30.8667Z" fill="#C56464"/>
</mask>
<g mask="url(#mask0_799_504)">
<rect x="60.7749" y="12.8667" width="12.6" height="15.3" fill="#6FBDD2"/>
<rect x="71.5752" y="25.4668" width="12.6" height="15.3" fill="#93BDB6"/>
<rect x="71.5752" y="40.7668" width="12.6" height="15.3" fill="#B7BE9B"/>
<rect x="60.7749" y="50.6667" width="12.6" height="15.3" fill="#DBBE7F"/>
<rect x="44.5752" y="50.6667" width="12.6" height="15.3" fill="#FFBE63"/>
<rect x="32.875" y="38.0667" width="12.6" height="15.3" fill="#BEB39B"/>
<rect x="31.9751" y="22.7668" width="12.6" height="15.3" fill="#97B8A6"/>
<rect x="44.5752" y="14.6667" width="12.6" height="15.3" fill="#83BBBC"/>
</g>
<path d="M52.2185 9.86742C58.2794 8.66189 64.5616 9.28068 70.2709 11.6454C75.9804 14.0103 80.8615 18.0152 84.2949 23.1535C87.7284 28.2921 89.561 34.3337 89.561 40.5138V40.5193C89.5511 48.802 86.257 56.7432 80.4003 62.6C74.5435 68.4567 66.6022 71.7508 58.3196 71.7607H58.3141C52.134 71.7607 46.0924 69.9281 40.9538 66.4946C35.8155 63.0612 31.8106 58.1801 29.4457 52.4706C27.081 46.7613 26.4622 40.4791 27.6677 34.4182C28.8734 28.3569 31.8488 22.7884 36.2187 18.4184C40.5887 14.0485 46.1572 11.0731 52.2185 9.86742ZM67.1654 19.1454C62.9393 17.3949 58.2887 16.9383 53.8024 17.8307C49.3159 18.7231 45.1954 20.9261 41.9609 24.1606C38.7264 27.3952 36.5234 31.5156 35.631 36.0021C34.7386 40.4884 35.1952 45.139 36.9457 49.3651C38.6962 53.5911 41.6622 57.2022 45.4656 59.7435C49.2679 62.2841 53.7375 63.6393 58.3104 63.64C64.443 63.6325 70.3216 61.1942 74.6581 56.8578C78.9936 52.5222 81.4337 46.6451 81.4421 40.5138L81.4256 39.6568C81.2672 35.3829 79.9261 31.2307 77.5438 27.6653C75.0025 23.8619 71.3914 20.8959 67.1654 19.1454ZM58.3196 24.2668L59.1252 24.2888C63.1372 24.4936 66.9426 26.1772 69.7966 29.0312C72.8409 32.0755 74.5544 36.203 74.561 40.5083V40.5138L74.55 41.1162C74.4387 44.1185 73.4971 47.0363 71.8236 49.5409C70.0385 52.2124 67.5008 54.2951 64.5323 55.5248C61.5636 56.7545 58.2961 57.0745 55.1445 56.4476C51.993 55.8207 49.0982 54.2739 46.826 52.0018C44.5539 49.7297 43.0071 46.8349 42.3802 43.6833C41.7533 40.5317 42.0734 37.2642 43.3031 34.2955C44.5328 31.3271 46.6154 28.7894 49.287 27.0043C51.9588 25.219 55.1007 24.2668 58.3141 24.2668H58.3196ZM58.3104 32.3857C56.7042 32.3865 55.1343 32.863 53.7987 33.7554C52.4622 34.6484 51.4201 35.9178 50.8049 37.4028C50.1897 38.888 50.0281 40.5228 50.3417 42.0995C50.6553 43.6762 51.4297 45.1247 52.5664 46.2615C53.7031 47.3982 55.1517 48.1726 56.7284 48.4862C58.305 48.7998 59.9398 48.6381 61.425 48.0229C62.91 47.4077 64.1795 46.3657 65.0725 45.0292C65.9645 43.6941 66.441 42.1248 66.4421 40.5193L66.4311 40.1164C66.3285 38.1071 65.4856 36.201 64.0563 34.7716C62.5321 33.2474 60.4658 32.3897 58.3104 32.3857Z" fill="#0A2A33"/>
<path d="M27.0669 78.951V40.5135C27.0669 38.2716 28.8844 36.4541 31.1263 36.4541C33.3683 36.4541 35.1858 38.2716 35.1858 40.5135V78.951L35.2023 79.2916C35.2806 80.0791 35.6284 80.82 36.1929 81.3845C36.8381 82.0298 37.7138 82.3916 38.6263 82.3916C39.5389 82.3916 40.4146 82.0298 41.0598 81.3845C41.7051 80.7393 42.0669 79.8636 42.0669 78.951V64.808C42.0669 62.5661 43.8844 60.7485 46.1263 60.7485C48.3683 60.7485 50.1858 62.5661 50.1858 64.808V78.951C50.1858 82.0168 48.968 84.9571 46.8002 87.1249C44.6324 89.2927 41.6921 90.5105 38.6263 90.5105C35.5606 90.5105 32.6203 89.2927 30.4525 87.1249C28.4202 85.0925 27.2233 82.3812 27.0815 79.5242L27.0669 78.951ZM13.9419 84.576V46.1385C13.9419 43.8966 15.7594 42.0791 18.0013 42.0791C20.2433 42.0791 22.0608 43.8966 22.0608 46.1385V84.576C22.0608 86.818 20.2433 88.6355 18.0013 88.6355C15.7594 88.6355 13.9419 86.818 13.9419 84.576Z" fill="#0A2A33"/>
<path d="M17.7627 39.7676C20.3515 39.7676 22.4502 37.6689 22.4502 35.0801C22.4502 32.4912 20.3515 30.3926 17.7627 30.3926C15.1739 30.3926 13.0752 32.4912 13.0752 35.0801C13.0752 37.6689 15.1739 39.7676 17.7627 39.7676Z" fill="#0A2A33"/>
<path d="M54.2549 67.7013V52.7013C54.2549 50.4594 56.0724 48.6418 58.3143 48.6418C60.5563 48.6418 62.3738 50.4594 62.3738 52.7013V67.7013C62.3738 69.9432 60.5563 71.7607 58.3143 71.7607C56.0724 71.7607 54.2549 69.9432 54.2549 67.7013ZM47.1339 45.9813C48.7283 44.6809 51.0804 44.7753 52.5666 46.2615C54.1519 47.8468 54.1519 50.4165 52.5666 52.0018L41.9612 62.6091C40.3759 64.1944 37.8043 64.1944 36.219 62.6091C34.6337 61.0238 34.6337 58.4522 36.219 56.8669L46.8263 46.2615L47.1339 45.9813ZM64.062 46.2615C65.5482 44.7753 67.9003 44.6809 69.4947 45.9813L69.8024 46.2615L80.4097 56.8669L80.688 57.1764C81.9882 58.7708 81.8958 61.123 80.4097 62.6091C78.9236 64.0952 76.5713 64.1876 74.9769 62.8874L74.6675 62.6091L64.062 52.0018L63.7819 51.6942C62.4814 50.0998 62.5758 47.7477 64.062 46.2615ZM46.1268 36.4543L46.5425 36.4745C48.5892 36.6826 50.1863 38.4122 50.1863 40.5138C50.1863 42.6154 48.5892 44.345 46.5425 44.5531L46.1268 44.5732H31.1268C28.8849 44.5732 27.0674 42.7557 27.0674 40.5138C27.0674 38.2719 28.8849 36.4543 31.1268 36.4543H46.1268ZM85.5018 36.4543L85.9175 36.4745C87.9642 36.6826 89.5613 38.4122 89.5613 40.5138C89.5613 42.6154 87.9642 44.345 85.9175 44.5531L85.5018 44.5732H70.5018C68.2599 44.5732 66.4424 42.7557 66.4424 40.5138C66.4424 38.2719 68.2599 36.4543 70.5018 36.4543H85.5018ZM36.219 18.4185C37.7051 16.9323 40.0573 16.84 41.6517 18.1401L41.9612 18.4185L52.5666 29.0258L52.8468 29.3334C54.1473 30.9278 54.0529 33.2799 52.5666 34.7661C51.0804 36.2523 48.7283 36.3467 47.1339 35.0463L46.8263 34.7661L36.219 24.1606L35.9407 23.8512C34.6405 22.2568 34.7329 19.9046 36.219 18.4185ZM74.6675 18.4185C76.2528 16.8332 78.8244 16.8332 80.4097 18.4185C81.9949 20.0037 81.9949 22.5754 80.4097 24.1606L69.8024 34.7661L69.4947 35.0463C67.9003 36.3467 65.5482 36.2523 64.062 34.7661C62.4767 33.1808 62.4767 30.611 64.062 29.0258L74.6675 18.4185ZM54.2549 28.3263V13.3263C54.2549 11.0844 56.0724 9.26685 58.3143 9.26685C60.5563 9.26685 62.3738 11.0844 62.3738 13.3263V28.3263C62.3738 30.5682 60.5563 32.3857 58.3143 32.3857C56.0724 32.3857 54.2549 30.5682 54.2549 28.3263Z" fill="#0A2A33"/>
</g>
<defs>
<clipPath id="clip0_799_504">
<rect width="100" height="100" fill="white" transform="translate(0.875 0.666748)"/>
</clipPath>
</defs>
</svg>
