<svg width="101" height="101" viewBox="0 0 101 101" fill="none" xmlns="http://www.w3.org/2000/svg">
<g clip-path="url(#clip0_801_599)">
<path d="M76.6875 0.333252H23.5625C10.6183 0.333252 0.125 10.8266 0.125 23.7708V76.8958C0.125 89.8399 10.6183 100.333 23.5625 100.333H76.6875C89.6317 100.333 100.125 89.8399 100.125 76.8958V23.7708C100.125 10.8266 89.6317 0.333252 76.6875 0.333252Z" fill="white"/>
<path d="M26.2188 6.83325H74.0312C84.8526 6.83325 93.625 15.6057 93.625 26.427V74.2395C93.625 85.0608 84.8526 93.8333 74.0312 93.8333H26.2188C15.3974 93.8333 6.625 85.0608 6.625 74.2395V26.427C6.625 15.6057 15.3974 6.83325 26.2188 6.83325Z" fill="#FFBE63" stroke="#0A2A33" stroke-width="3"/>
<path d="M28.7894 80.5439L35.6765 76.3758C37.0054 78.7316 38.2141 80.7249 41.1134 80.7249C43.8925 80.7249 45.6447 79.6379 45.6447 75.4093V46.6522H54.1026V75.5289C54.1026 84.2887 48.9677 88.2761 41.4759 88.2761C34.7101 88.2761 30.7828 84.7721 28.7891 80.5432M58.6965 79.6376L65.5829 75.6505C67.3959 78.611 69.7521 80.7858 73.9202 80.7858C77.4249 80.7858 79.6594 79.0336 79.6594 76.6169C79.6594 73.7172 77.3637 72.69 73.4973 70.999L71.3833 70.0923C65.2812 67.4949 61.2334 64.2324 61.2334 57.3453C61.2334 51.0017 66.0666 46.1685 73.6186 46.1685C78.9953 46.1685 82.8618 48.0416 85.6406 52.935L79.0555 57.1639C77.6053 54.5662 76.0352 53.5393 73.6186 53.5393C71.1414 53.5393 69.5707 55.1101 69.5707 57.1639C69.5707 59.7012 71.1414 60.7284 74.766 62.2996L76.8803 63.2055C84.0694 66.287 88.1173 69.4278 88.1173 76.496C88.1173 84.1087 82.1366 88.2769 74.1016 88.2769C66.248 88.2769 61.1732 84.5313 58.6965 79.6376Z" fill="#0A2A33"/>
</g>
<defs>
<clipPath id="clip0_801_599">
<rect width="100" height="100" fill="white" transform="translate(0.125 0.333252)"/>
</clipPath>
</defs>
</svg>
