<svg width="101" height="101" viewBox="0 0 101 101" fill="none" xmlns="http://www.w3.org/2000/svg">
<g clip-path="url(#clip0_893_395)">
<path d="M6.50735 21.255C6.50735 13.1332 13.0914 6.5491 21.2132 6.5491H80.0368C88.1586 6.5491 94.7426 13.1331 94.7426 21.255V80.0785C94.7426 88.2003 88.1586 94.7844 80.0368 94.7844H21.2132C13.0914 94.7844 6.50735 88.2003 6.50735 80.0785V21.255Z" fill="#FFBE63"/>
<path d="M0.625 80.0785V21.255C0.625001 9.88442 9.84267 0.666748 21.2132 0.666748V6.5491C13.0914 6.5491 6.50735 13.1332 6.50735 21.255V80.0785C6.50735 88.0736 12.8875 94.5785 20.8341 94.7796L21.2132 94.7844H80.0368C88.1586 94.7844 94.7426 88.2003 94.7426 80.0785V21.255C94.7426 13.1331 88.1586 6.5491 80.0368 6.5491V0.666748C91.4073 0.666748 100.625 9.88442 100.625 21.255V80.0785C100.625 91.4491 91.4073 100.667 80.0368 100.667H21.2132C9.84267 100.667 0.625 91.4491 0.625 80.0785ZM80.0368 0.666748V6.5491H21.2132V0.666748H80.0368Z" fill="white"/>
<rect x="7.125" y="7.16675" width="87" height="87" rx="13.5" fill="#FFBE63" stroke="#0A2A33" stroke-width="3"/>
<path d="M38.9113 63.0512C38.5831 60.9101 37.6808 59.1711 35.4906 58.3301C34.6333 58.002 33.891 57.4032 33.046 57.0258C32.0863 56.5951 31.1101 56.185 30.097 55.9184C29.33 55.7133 28.6163 56.0578 28.1611 56.7305C27.7304 57.3621 28.0421 57.9569 28.4031 58.486C28.8091 59.0807 29.2603 59.6467 29.7156 60.2045C30.4702 61.1315 31.2701 62.0215 32.0042 62.9609C32.7056 63.8592 33.3044 64.8558 33.2019 66.0453C32.9763 68.6539 31.7951 70.8155 29.8919 72.575C29.6827 72.7637 29.3136 72.899 29.0429 72.8744C27.8288 72.7431 26.7255 72.2838 25.8355 71.4347C24.8142 70.4627 24.97 69.3183 26.1923 68.6088C26.4835 68.4406 26.787 68.2848 27.0536 68.0797C27.8001 67.5178 28.0503 66.558 27.6443 65.7254C27.4515 65.3234 27.2341 64.8887 26.9142 64.5974C25.3515 63.1742 23.8174 61.7057 22.1439 60.4097C18.0873 57.2596 16.0039 53.0925 15.6838 48.0475C15.3229 42.4446 16.6231 37.2151 19.5803 32.4284C20.7 30.6115 22.0043 28.8805 24.0059 27.9823C25.3676 27.3712 26.8606 27.0267 28.3168 26.6452C32.3242 25.5911 36.3682 24.7995 40.5396 25.505C44.1326 26.1079 46.7618 27.9577 47.9677 31.4892C48.7593 33.7984 48.9479 36.1855 48.7018 38.6302C48.2179 43.4332 44.67 47.7276 40.0433 48.999C38.0376 49.5487 36.9425 49.241 35.7367 47.5717C34.8712 46.3699 34.1535 45.0615 33.3783 43.794C33.2634 43.6054 33.1814 43.388 33.0829 43.187C32.9886 42.986 32.8861 42.7932 32.7876 42.5923C33.0788 44.6759 33.5628 46.6817 34.699 48.4698C35.3142 49.4419 36.1345 50.1597 37.3363 50.2663C41.7578 50.6641 45.4903 49.2122 48.1399 45.656C51.1054 41.6773 51.7577 37.1 50.9003 32.2807C50.7321 31.3291 50.4491 30.398 50.2481 29.4506C50.1128 28.8394 50.3548 28.3883 50.9577 28.175C51.2366 28.0806 51.5237 28.0027 51.8026 27.9453C55.4203 27.166 59.0789 26.9076 62.7663 27.2808C66.95 27.6992 70.908 28.8476 74.4477 31.1734C79.989 34.8197 83.422 40.0083 85.2882 46.2838C85.5589 47.1944 85.6 48.191 85.6246 49.1509C85.641 49.7908 85.2308 49.959 84.7427 49.557C84.2054 49.1181 83.7132 48.6177 83.2498 48.1009C82.8191 47.6129 82.4746 47.055 82.0562 46.5423C81.7322 46.1404 81.4492 46.2019 81.2933 46.7023C81.1949 47.0058 81.1087 47.3052 81.0226 47.6088C80.0546 51.0623 78.5289 54.2123 76.0556 56.8661C75.7111 57.2394 75.4035 57.7931 75.3624 58.2853C75.2558 59.647 75.1779 61.0374 75.3091 62.395C75.5798 65.3114 76.0023 68.2152 76.3304 71.1274C76.515 72.7721 75.9859 73.7401 74.4396 74.3104C73.3527 74.7082 72.1878 74.9994 71.0394 75.0815C69.2101 75.2086 67.3644 75.1184 65.5269 75.1184C65.4777 73.0676 65.654 71.0536 63.7263 69.9544C64.0995 68.4327 64.5302 66.9889 64.7886 65.5124C65.0019 64.286 64.8214 63.0801 63.9601 62.0753C63.1521 61.1278 62.139 60.8694 61.2119 61.4108C58.4187 63.0391 55.5147 63.0473 52.5575 61.9809C51.1998 61.4887 50.2524 61.7676 49.5017 63.0063C48.6936 64.3393 48.3532 65.8364 48.4434 67.35C48.5583 69.2572 48.8905 71.1439 49.1448 73.043C49.2843 74.1053 49.1653 74.3801 48.1112 74.6508C45.7692 75.2455 43.3862 75.3111 40.9908 75.1184C40.8636 75.1061 40.7365 75.0527 40.6544 75.0322C40.5355 73.043 40.7447 70.9757 38.374 69.9174C39.424 67.6903 39.2804 65.3811 38.9195 63.0719L38.9113 63.0514V63.0512ZM24.7525 55.2459C25.1012 54.9177 25.3801 54.4051 25.4785 53.9334C25.7246 52.7521 24.8387 51.1689 23.8133 50.73C23.2678 50.4922 22.792 50.5783 22.4064 51.0131C21.4672 52.0754 20.5402 53.15 19.6172 54.2288C19.4614 54.4134 19.3219 54.6308 19.2112 54.8482C18.842 55.5577 19.0594 56.0745 19.8469 56.2673C20.3227 56.3862 20.8149 56.4109 21.303 56.4806C22.5745 56.3575 23.8049 56.1442 24.7524 55.2501L24.7525 55.2459ZM24.8592 43.4373C24.8551 42.5924 24.1496 41.8869 23.317 41.8828C22.4597 41.8787 21.7215 42.6457 21.7502 43.4906C21.7871 44.3397 22.4926 45.0205 23.3375 45.0041C24.1906 44.9918 24.8715 44.2946 24.8633 43.4414L24.8592 43.4373Z" fill="#0A2A33"/>
<path d="M62.58 37.4866L60.3176 49.1267H62.9529L64.0834 43.3067H66.0599C66.7886 43.3067 67.2656 43.8864 67.1272 44.6006L66.247 49.1267H68.8823L69.7625 44.6006C70.1789 42.4568 68.7466 40.7201 66.5633 40.7201H64.5868L65.2153 37.4866H62.58ZM52.0691 40.7201H57.0103C59.3755 40.7201 60.9263 42.6017 60.4757 44.9234C60.0251 47.2451 57.7416 49.1267 55.3764 49.1267H53.0705L52.442 52.3616H49.8066L52.0691 40.7201ZM53.5725 46.5402H55.8784C56.7876 46.5402 57.6665 45.8155 57.8404 44.9234C58.013 44.0301 57.4174 43.3067 56.5069 43.3067H54.201L53.5725 46.5402ZM71.8339 40.7201H76.7751C79.1403 40.7201 80.6912 42.6017 80.2405 44.9234C79.7899 47.2451 77.5051 49.1267 75.1412 49.1267H72.8353L72.2068 52.3616H69.5715L71.8339 40.7201ZM73.3373 46.5402H75.6432C76.5524 46.5402 77.4313 45.8155 77.6052 44.9234C77.7778 44.0301 77.1823 43.3067 76.2718 43.3067H73.9659L73.3373 46.5402Z" fill="white"/>
</g>
<defs>
<clipPath id="clip0_893_395">
<rect width="100" height="100" fill="white" transform="translate(0.625 0.666748)"/>
</clipPath>
</defs>
</svg>
