<svg width="101" height="100" viewBox="0 0 101 100" fill="none" xmlns="http://www.w3.org/2000/svg">
<g clip-path="url(#clip0_799_485)">
<path d="M17.8336 0H82.4164C92.2086 0 100.125 8.11939 100.125 18.1627V81.8373C100.125 91.8806 92.2086 100 82.4164 100H17.8336C8.04141 100 0.125 91.8806 0.125 81.8373V18.1627C0.125 8.11939 8.04141 0 17.8336 0Z" fill="white"/>
<path d="M21.0625 7.5H79.1875C87.1719 7.50013 93.6249 13.9531 93.625 21.9375V77.8125C93.6249 85.7969 87.1719 92.2499 79.1875 92.25H21.0625C13.0781 92.2499 6.62512 85.7969 6.625 77.8125V21.9375C6.62513 13.9531 13.0781 7.50013 21.0625 7.5Z" fill="#FFBE63" stroke="#0A2A33" stroke-width="3"/>
<path d="M37.3747 28.312C36.2497 28.312 35.1247 28.312 33.9625 28.35C32.7995 28.3872 31.7118 28.3872 30.6993 28.4252C29.6868 28.4625 28.7495 28.4625 27.8495 28.4997C26.9868 28.537 26.387 28.537 25.7493 28.537C25.487 28.537 25.3745 28.6868 25.3745 28.9497V67.5372C25.3745 67.8747 25.5243 68.0252 25.8245 68.0252H33.0997C33.362 67.9872 33.5497 67.7622 33.5118 67.5V55.4625C34.224 55.4625 34.7493 55.4625 35.1247 55.4997C35.4995 55.537 36.0993 55.537 36.9993 55.537C40.0747 55.537 42.8872 55.1995 45.4368 54.2622C47.8745 53.3622 49.9747 51.7872 51.4745 49.687C52.9745 47.587 53.7245 44.9245 53.7245 41.6995C53.7245 40.012 53.425 38.3997 52.8625 36.8247C52.2664 35.2201 51.3327 33.7623 50.1245 32.5497C48.6984 31.1643 46.9818 30.1138 45.0993 29.4743C42.999 28.6868 40.4495 28.312 37.3747 28.312ZM38.2115 35.6983C39.5474 35.7237 40.8482 35.9571 42.0618 36.4493C43.1495 36.862 44.0495 37.6122 44.6872 38.5868C45.2853 39.5954 45.5845 40.7531 45.55 41.9252C45.55 43.5747 45.1745 44.8502 44.387 45.7875C43.5615 46.7247 42.5118 47.4377 41.3122 47.7752C39.9243 48.2252 38.4618 48.4495 36.9993 48.4495H35.0115C34.5615 48.4495 34.075 48.4122 33.5497 48.375V35.775C33.812 35.737 34.3372 35.6997 35.0875 35.7377C35.7997 35.6997 36.6618 35.6997 37.637 35.6997C37.8292 35.6951 38.0207 35.6946 38.2115 35.6983ZM69.6622 37.6129C66.9995 37.6129 64.7868 38.025 63.0247 38.925C61.4125 39.6752 60.0245 40.8747 59.0872 42.3745C58.2625 43.7625 57.8118 45.2995 57.8118 46.9125C57.7797 48.2391 58.0761 49.5531 58.6745 50.7375C59.3758 51.9986 60.3496 53.0875 61.525 53.9247C63.1746 55.053 64.9647 55.9607 66.8497 56.6247C68.687 57.337 69.9245 57.8995 70.525 58.3868C71.1247 58.8747 71.425 59.362 71.425 59.8872C71.425 60.5622 71.0122 61.2 70.4125 61.4622C69.7375 61.7997 68.725 61.9875 67.2997 61.9875C65.8 61.9875 64.2995 61.7997 62.8743 61.425C61.2378 61.0595 59.6688 60.4395 58.2245 59.5877C58.112 59.5125 57.9995 59.4752 57.887 59.5504C57.7745 59.625 57.7372 59.7747 57.7372 59.8872V66.4122C57.7 66.7125 57.887 66.9747 58.15 67.1245C59.366 67.6926 60.6523 68.0962 61.975 68.3247C63.6625 68.6622 65.3493 68.812 67.074 68.812C69.774 68.812 72.0247 68.4 73.862 67.6125C75.5495 66.9375 77.012 65.7752 78.0618 64.2747C79.0449 62.7997 79.5551 61.0599 79.5243 59.2875C79.5613 57.9485 79.265 56.6214 78.6622 55.4252C77.9493 54.1497 76.9368 53.1 75.6993 52.3125C73.8889 51.1756 71.9505 50.2566 69.9245 49.5745C69.0198 49.2 68.1314 48.7872 67.2618 48.337C66.7745 48.0747 66.3245 47.7372 65.987 47.3245C65.762 47.0243 65.6122 46.6875 65.6122 46.35C65.6122 46.0125 65.7247 45.6377 65.9118 45.3375C66.1747 44.9627 66.5868 44.6997 67.074 44.5872C67.787 44.4002 68.5745 44.287 69.324 44.3243C70.7493 44.3243 72.1365 44.512 73.5245 44.8122C74.8 45.0745 75.9995 45.4872 77.1245 46.0877C77.2743 46.1622 77.462 46.1622 77.7995 46.0877C77.8581 46.0443 77.9056 45.9877 77.9383 45.9224C77.9709 45.8572 77.9877 45.7852 77.9872 45.7122V39.6C77.9872 39.4495 77.9493 39.2997 77.912 39.15C77.8368 39.0002 77.687 38.8497 77.5372 38.8125C76.5029 38.3897 75.4192 38.0999 74.312 37.9497C72.7722 37.7255 71.2183 37.6135 69.6622 37.6129Z" fill="#0A2A33"/>
</g>
<defs>
<clipPath id="clip0_799_485">
<rect width="100" height="100" fill="white" transform="translate(0.125)"/>
</clipPath>
</defs>
</svg>
