<svg id="Calque_2" data-name="Calque 2" xmlns="http://www.w3.org/2000/svg" viewBox="0 0 128 128"><defs><style>.cls-1{fill:#fff;}</style></defs><path d="M46.23,94.39S41,101.53,30,99.08c3.67,5.51,4.9,5.51,6.74,6.73l13.74-6.17Z"/><path class="cls-1" d="M86.94,96.63s5.51-9.8-6.12-11.63S74.7,97.24,74.7,97.24,82,105.81,86.94,96.63Z"/><path d="M81.34,101c-3.52,0-6.67-3.62-6.7-3.66l0,0c0-.07-2.83-7.38-.1-10.77,1.22-1.52,3.34-2,6.31-1.58,3.55.56,5.87,1.92,6.9,4,1.65,3.4-.68,7.63-.72,7.71-1.39,2.6-3.11,4-5.12,4.25A4.93,4.93,0,0,1,81.34,101ZM74.76,97.2c.19.21,3.22,3.6,6.58,3.6a4.58,4.58,0,0,0,.53,0c2-.21,3.64-1.62,5-4.18h0s2.34-4.22.72-7.57c-1-2.07-3.29-3.4-6.78-4-2.92-.46-5,.05-6.17,1.52C72,89.86,74.63,96.86,74.76,97.2Z"/><path id="Tete" class="cls-1" d="M46.53,100.3A17.21,17.21,0,0,1,46.23,90C49,79.12,66.74,80.1,75.92,85s13.47,20.81,2.45,28.16c-15.92,9.19-24.49,2.45-36.74-.61-12.24-3.67-11-15.31,6.74-11.63"/><path d="M63,118.1c-5,0-9.49-1.49-14.07-3-2.34-.78-4.76-1.59-7.33-2.23-6.34-1.91-8.92-5.8-8.19-8.66.68-2.7,4.46-5.2,12.82-4a17.39,17.39,0,0,1-.25-10.35,10.37,10.37,0,0,1,6.3-7.08c6.92-3.05,17.55-1.41,23.82,1.94,5.16,2.75,8.84,8.87,9.15,15.24a14.71,14.71,0,0,1-6.67,13.45C72.52,116.89,67.5,118.1,63,118.1ZM42.17,100.52c-5,0-7.67,1.69-8.21,3.82-.65,2.58,1.8,6.13,7.76,7.92,2.58.64,5,1.45,7.36,2.24,9,3,16.69,5.58,29.14-1.6A14.14,14.14,0,0,0,84.6,100c-.3-6.16-3.85-12.08-8.82-14.73-6.15-3.28-16.54-4.9-23.29-1.92a9.8,9.8,0,0,0-6,6.67c-1,3.71-.88,6.09.3,10.2l-.22.06c.58.09,1.19.21,1.82.34l-.12.6A30.05,30.05,0,0,0,42.17,100.52Z"/><path d="M77.76,102.75c-.39,2-1,4-1.84,6.74-.46,1.59-1.22,2.45-1.52,5.71,8.87,1.63,8.34,2.7,15.6,1C80.82,112.55,79,99.69,77.76,102.75Z"/><path class="cls-1" d="M83.57,68.16C78.06,80.4,78.69,81,77.44,84.44a1.77,1.77,0,0,1-3.26.16C72,79.93,80,72.3,83.57,68.16Z"/><path d="M75.78,85.76a1.88,1.88,0,0,1-1.73-1.09c-2-4.13,3.87-10.53,7.73-14.76.61-.66,1.19-1.29,1.68-1.85l.67-.77-.42.93c-4,9-4.77,11.65-5.37,13.82-.21.78-.42,1.52-.75,2.45a1.88,1.88,0,0,1-1.71,1.27ZM83,69l-1,1.12c-3.81,4.17-9.56,10.47-7.69,14.41a1.61,1.61,0,0,0,3-.14c.33-.92.53-1.66.75-2.43C78.63,79.85,79.34,77.26,83,69Z"/><path class="cls-1" d="M56.87,82.6C60.64,72.81,63.68,69.69,68,64.79,62.45,78.26,60.92,82.85,56.87,82.6Z"/><path d="M57.2,82.76h-.54l.07-.2c3.56-9.25,6.42-12.51,10.39-17L68.45,64l-.35.85c-.41,1-.81,2-1.18,2.9C62.42,78.82,60.81,82.76,57.2,82.76Zm-.11-.31h.1c3.41,0,5-3.88,9.45-14.82l.83-2-.12.14C63.43,70.18,60.6,73.41,57.09,82.45Z"/><path d="M46.78,93h-.21c-1.85-.1-3.14-1.54-3.84-4.27h0c.16-4.29,1.45-7.16,3.86-8.55,4.54-2.61,11.54,1.07,11.61,1.11l.06,0,0,.06C56.13,86.82,50.73,93,46.78,93Zm-3.9-4.3c.68,2.64,1.93,4,3.7,4.14,3.87.22,9.35-6,11.49-11.48-.69-.35-7.16-3.51-11.41-1.07C44.31,81.64,43,84.47,42.88,88.7Z"/><path d="M55.19,93.78c1.75.4.06,5.3-1.31,5.3S53.47,93.38,55.19,93.78Z"/><path d="M68.67,97.72c1.75.4.06,5.3-1.31,5.3C66.14,103,67,97.32,68.67,97.72Z"/><path d="M48.7,103.13c.33-.25.67-.48,1-.7a2.13,2.13,0,0,0,.25-.16s.05,0,.08,0,.06-.08-.08-.18a2.62,2.62,0,0,0,0,.41.76.76,0,0,0,.51.7c.33.1.59-.1.9-.08L51,103c-.18-.2,0-.25-.09-.08a1.46,1.46,0,0,0-.07.19.9.9,0,0,0,0,.46.63.63,0,0,0,.82.44,1.22,1.22,0,0,0,.24-.1l.06,0c.12-.06.08-.07-.12-.06,0,0,.25.16.26.16a.87.87,0,0,0,.36,0,3.76,3.76,0,0,0,.62-.27l.74-.34-.69-.4.09.88a.46.46,0,0,0,.58.44l.71-.24.32-.1.13-.05c.23,0,.21-.18-.07-.44-.24.54.55,1,.8.46a.66.66,0,0,0-.52-1,1.58,1.58,0,0,0-.71.14l-.9.31.58.44-.09-.88a.46.46,0,0,0-.69-.39l-.63.28c-.08,0-.29.09-.34.16s-.08.06,0,.11l-.09-.08a.8.8,0,0,0-.91.07c-.12.05-.08.1.12.16s.17.06.19.14,0-.13,0-.15a1.37,1.37,0,0,0,.09-.4.6.6,0,0,0-.61-.65,1.27,1.27,0,0,0-.47.09l-.12,0,.18.13a1.28,1.28,0,0,0,0-.19.8.8,0,0,0-.42-.86,1.14,1.14,0,0,0-1,.16,13.84,13.84,0,0,0-1.19.81c-.47.35,0,1.14.47.79Z"/><path d="M59.77,104.73l.17.51a.46.46,0,0,0,.9-.12l-.26.2.06.05a.86.86,0,0,0,.16.18,1.1,1.1,0,0,0,.35.26.82.82,0,0,0,.85-.1,2,2,0,0,0,.26-.24s.07-.08.11-.11c-.12.1-.11,0,0,.15a8.53,8.53,0,0,0,.81,1c.27.32.78,0,.79-.33v-.67l-.86.23a2.32,2.32,0,0,0,1,1.06.47.47,0,0,0,.63-.16,2,2,0,0,0,.3-1l-.45.46c.33,0,.54.5.71.73a1.84,1.84,0,0,0,.92.75,1.06,1.06,0,0,0,.56,0l.28-.11s.23-.06.15-.1c.07,0,.16.3.21.37a1.12,1.12,0,0,0,.37.35.46.46,0,0,0,.46-.79c-.11-.07-.16-.24-.23-.35a1,1,0,0,0-.35-.37.86.86,0,0,0-.57-.1c-.21,0-.43.24-.64.2s-.59-.67-.79-.92a1.46,1.46,0,0,0-1.08-.59.47.47,0,0,0-.46.46,1,1,0,0,1-.19.5l.63-.16a1.57,1.57,0,0,1-.64-.73c-.19-.44-.84-.19-.85.23v.67l.78-.32-.58-.71a2.18,2.18,0,0,0-.59-.62c-.4-.2-.74,0-1,.3s-.08.16-.26,0a1.07,1.07,0,0,0-.51-.35.73.73,0,0,0-.92.68l.91-.12-.17-.51c-.18-.56-1.07-.32-.89.24Z"/><path d="M54.92,113a.36.36,0,0,1-.19-.05,1.76,1.76,0,0,1-.78-1.33,6.86,6.86,0,0,1,1.26-5.16h0c.38-.42.65-.37.8-.25.83.62.19,5.19-.54,6.37C55.27,113,55.07,113,54.92,113Zm.52-6.33h0a6.54,6.54,0,0,0-1.19,4.89,1.52,1.52,0,0,0,.62,1.12c.11.06.25-.11.34-.26.76-1.23,1.21-5.53.62-6C55.73,106.42,55.54,106.59,55.44,106.71Z"/><path d="M49.3,112.79a4.73,4.73,0,0,0-.64,2.75.47.47,0,0,0,.46.46.47.47,0,0,0,.46-.46,3.64,3.64,0,0,1,0-.66.62.62,0,0,1,0-.13.22.22,0,0,1,0-.08s0,0,0,0,0-.2,0-.3a5.76,5.76,0,0,1,.18-.59l0-.08s0,0,0,0l.06-.12a3,3,0,0,1,.16-.31.47.47,0,0,0-.16-.63.48.48,0,0,0-.63.17Z"/><path d="M50.59,114.28v2.11a.47.47,0,0,0,.46.46.48.48,0,0,0,.46-.46v-2.11a.46.46,0,0,0-.92,0Z"/><path d="M52.25,114.63l-.46,3a.46.46,0,0,0,.89.24l.46-2.95a.46.46,0,0,0-.89-.24Z"/><path d="M53.53,115.54a6.21,6.21,0,0,0,.46,2.13.46.46,0,0,0,.22.27.43.43,0,0,0,.35,0c.21-.07.42-.33.32-.56a5.75,5.75,0,0,1-.31-1,3.86,3.86,0,0,1-.09-.49c0,.12,0,0,0,0s0-.1,0-.15,0-.17,0-.26a.46.46,0,0,0-.46-.45.46.46,0,0,0-.46.45Z"/><path d="M39.84,98.86a3.37,3.37,0,0,1-2.57,1.38,1.87,1.87,0,0,1-1.82-1.56c-.14-1,.79-1.54,1.67-1.53a5.27,5.27,0,0,1,2.82,1.32.46.46,0,0,0,.63-.16,3.3,3.3,0,0,0,.59-2.7,1.6,1.6,0,0,0-1.74-1.12c-.83.17-1.21,1-1.53,1.68a26.56,26.56,0,0,1-1.49,3.14c-.43.66-1.08.76-1.48,0a2.07,2.07,0,0,1-.09-1.51,2.6,2.6,0,0,1,2.25-1.87c2-.12,3.7,1.92,5.44,2.69a.47.47,0,0,0,.69-.4,2.49,2.49,0,0,0-.8-2.13,1.49,1.49,0,0,0-1.76,0c-1.27,1,.19,3,1.17,3.58a4.68,4.68,0,0,0,4.6.13A3.09,3.09,0,0,0,48,95.62c-1-1.78-3.42-1.2-5.06-1.75l.27.67A4.13,4.13,0,0,1,50.93,97c0,.21.16.37.33.44a1.47,1.47,0,0,0,1.91-1.73.46.46,0,0,0-.56-.32,13.79,13.79,0,0,1-8.2.72l.33.57c.56-2.7,3.5-3.57,5.65-4.66.75-.37,1.74-.93,1.59-1.91s-1.23-1.34-2-1.52a5.69,5.69,0,0,0-5.23,1.66c-.44.46-.77,1.14-1.39,1.37a5.27,5.27,0,0,1-1.94.06L37,91.59a.46.46,0,0,0-.39.69,1,1,0,0,1-.07,1.33,1.13,1.13,0,0,1-1.79-.35A1.44,1.44,0,0,1,35,91.5a2.2,2.2,0,0,1,2.12-.44c.58.13,1.13.37,1.69.55a2.28,2.28,0,0,0,1.53.18c.82-.37.57-1.51.34-2.16a2.44,2.44,0,0,0-1.66-1.71,2,2,0,0,0-2.12,1.22c-.51,1-.36,2.3-1.09,3.13a2,2,0,0,1-2.66,0,2.19,2.19,0,0,1,.48-3.23,2.69,2.69,0,0,1,3.57.92l.39-.69c-1.74.15-3.49.33-5.23.45-2.05.14-1.3-3-.48-3.92h-.65c1,1.1.59,3.19,2.21,3.79a4.94,4.94,0,0,0,2.91-.27,15.23,15.23,0,0,0,3.3-1.4l-.56-.72-2.64,2.41a.46.46,0,0,0,.21.77,21.76,21.76,0,0,0,7.42-.14.45.45,0,0,0,.2-.76,11.37,11.37,0,0,0-6.71-2.45l.12.9a5.19,5.19,0,0,1,3.5.75l.36-.84a4.91,4.91,0,0,1-2.73-1.11c-.61-.63-1-2,0-2.47a1.94,1.94,0,0,1,2.3.84,6.3,6.3,0,0,1,.72,3.08l.9-.12a7.49,7.49,0,0,0-6.43-5.8v.92a12,12,0,0,1,6.28.9,11.63,11.63,0,0,1,2.73,1.69,4.39,4.39,0,0,1,1,1c.73,1.17-1.25.76-1.69.6l.21.77A2.86,2.86,0,0,1,48.79,88l.2-.77a16.05,16.05,0,0,1-6.51.24v.88c1.79-.75,3.76.21,5.58-.43s2.11-2.32,1.86-4a3,3,0,0,0-1.05-2.06,1.7,1.7,0,0,0-1.95-.11c-1.67,1.13.06,3.15.11,4.54l.33-.45a3.72,3.72,0,0,1-4.74-3.47c0-1.34.73-2.5,2.2-2.12a4.34,4.34,0,0,1,2.67,2.22l.4-.69a8.17,8.17,0,0,1-3.4-.45c-.79-.29-2.62-1.3-1.58-2.33l-.44.12a3.06,3.06,0,0,1,2.25,1.91c.26,1.14-.66,1.37-1.16,2.14-.9,1.38,1.39,2.68,2.49,2.85a1.67,1.67,0,0,0,1.79-2.53,6.9,6.9,0,0,0-4.48-2.89l-.12.9,5-.37a.47.47,0,0,0,.23-.86c-1.36-1-3.2-1.63-4.28-3s-1-3.59,1.12-3.79c1.28-.11,4.39,1.87,2.94,3.22a4.55,4.55,0,0,1-4.77.79l.2.76a3.76,3.76,0,0,1,5,.35c1.32,1.48,1.34,3.72,2.56,5.3a.46.46,0,0,0,.77-.2,3.85,3.85,0,0,0-2.84-4.36.45.45,0,0,0-.56.32c-.48,2.44,2.19,3.32,3.67,4.59.73.62,1.63,2,.39,2.61a1.24,1.24,0,0,1-1.89-1.3c.2-1.25,1.4-2,2.27-2.82a4.74,4.74,0,0,0,1.6-2.47,4.58,4.58,0,0,0-2-4.86.47.47,0,0,0-.69.4,43.83,43.83,0,0,0,.21,5.37.46.46,0,0,0,.92,0,2.87,2.87,0,0,1,2-2.69l-.58-.44a7,7,0,0,1-1.36,4.21.44.44,0,0,0,0,.47,4.85,4.85,0,0,0,4.32,2,.47.47,0,0,0,.33-.78c-.81-.86-1.93-.86-3-1.1a1.87,1.87,0,0,1-1.56-1.28c-.22-.69-.24-1.43-.44-2.13a7.68,7.68,0,0,0-5.15-5.19l.11.84a3.89,3.89,0,0,1,4.27-.36l.35-.84c-.77-.13-2.07-.34-2.34-1.22-.1-.34.12-1.08.55-1.13.59-.06.51.79.41,1.11-.27.85-1,1.5-1,2.43A2.49,2.49,0,0,0,51,77a2.78,2.78,0,0,0,3.82-.52,4.07,4.07,0,0,0,.15-4.7l-.72.56A8.68,8.68,0,0,1,56,74.74c.11.24,1,2.4.4,2.45l.4.22a5.75,5.75,0,0,1-.37-3.81,3.87,3.87,0,0,1,.75-1.71.52.52,0,0,1,.53-.27.46.46,0,0,1-.38.54,2.49,2.49,0,0,1-1,.06l.44.58a8.23,8.23,0,0,0,0-5,.46.46,0,0,0-.89,0,14.64,14.64,0,0,0-.06,5.75c.24,1.27.78,2.44,2.28,2,.5-.17,1.19-.67,1.74-.54s.51.85.26,1.24a3.1,3.1,0,0,1-1.1.87A13.72,13.72,0,0,1,53,78.79v.92c1.46-.08,2.36,1.54,2.16,2.85-.25,1.59-1.6,2.78-2.78,3.73a.46.46,0,0,0,.09.72,3.84,3.84,0,0,0,4.78-1.4c1.32-1.89.76-4.44-.38-6.28l-.8.47c.8,1.11,2,.85,3.2,1.21.35.11.88.36.71.81s-.41.09-.35-.29a1.06,1.06,0,0,1,.77-.89.66.66,0,0,1,.67.94l.52-.21a4.1,4.1,0,0,1-2.91-2l-.39.69c1.86,0,3.63,2,5.5.91,1.59-.9,1.43-3.07,1.16-4.6a.46.46,0,0,0-.56-.32,3.87,3.87,0,0,0-2.11,1.85,7.13,7.13,0,0,1-1,1.35c-.37.36-1.34.89-1.77.28a.73.73,0,0,1-.06-.58c.15-.29.3-.2.57-.11a3.91,3.91,0,0,1,1.34.77,4.19,4.19,0,0,1,1.48,2.77.46.46,0,0,0,.92,0,1.22,1.22,0,0,1,1.43-1.23V80.3a1.64,1.64,0,0,1-.91-3.13.46.46,0,0,0,.11-.84c-.95-.52-2.57-1.43-2.09-2.79a.68.68,0,0,1,.79-.53c.18,0,.53.22.54.42,0,.67-1.09.39-1.25,0l-.11.45a2.57,2.57,0,0,1,2.83-.76c.46.15.72-.45.44-.77A3.78,3.78,0,0,0,62,71.1a.46.46,0,0,0-.11.84c1.17.63,3,1.71,2.65,3.29l.32-.32A1.41,1.41,0,0,1,63,74.45c-.45-.92.42-1.57,1.28-1.36,1.29.32,2,1.71,3.16,2.35a.47.47,0,0,0,.69-.4,1.25,1.25,0,0,0-1.33-1.32,1.26,1.26,0,0,0-1,1.57l.32-.56c-1.43.36-3.26-1-2.75-2.6.38-1.15,1.6-.64,2.35-.17a5.18,5.18,0,0,1,1.76,1.9l.28-.67a1.34,1.34,0,0,1-1.53-.84l-.07.56a.78.78,0,0,1,1.24.28l.21-.52a5.75,5.75,0,0,1-3.14.54.46.46,0,0,0-.44.58,5.35,5.35,0,0,0,1.68,3.09,2.14,2.14,0,0,0,2.59.35,1.91,1.91,0,0,0,.19-2.59c-.54-.9-2.6-2.25-1.76-3.41l-.4.23a1.19,1.19,0,0,1,1.09,1.67l.56-.32a1.34,1.34,0,0,1-.56-2.15h-.65a5.84,5.84,0,0,1,1.65,5.14c-.31,1.7-1.56,3.21-1.13,5a2.19,2.19,0,0,0,2.82,1.75,2.45,2.45,0,0,0,1-3.64.46.46,0,0,0-.86.23,3.05,3.05,0,0,1-4.1,2.94l-.25.89c.92.24.88,1.57.34,2.17-.89,1-2.56.53-3.61.1v.89L65.89,85a.47.47,0,0,0,0-.89A8,8,0,0,0,63,83.7a.46.46,0,0,0-.44.58,1.88,1.88,0,0,0,2.33,1.19,2.09,2.09,0,0,0,1.33-2.7c-1-3.28-5.46-2.35-7.65-1.17a.46.46,0,0,0,.35.84,9.82,9.82,0,0,1,6.61.33.47.47,0,0,0,.45-.12,3.62,3.62,0,0,0,1-2.37c.1-.83.22-2.43,1.35-2.51l-.4-.69s-.36-.62-.39-.75A3.19,3.19,0,0,1,67.42,75a1.55,1.55,0,0,1,1.67-1.47l-.33-.45a8.54,8.54,0,0,0,1.34,3.85.48.48,0,0,0,.73.1,4,4,0,0,0,.74-4.9.47.47,0,0,0-.63-.17,1.43,1.43,0,0,0-.29,2c.58.88,1.75.84,2.68.74l-.45-.58a1.65,1.65,0,0,0,1.35,1.92,10.91,10.91,0,0,1,1.7.35,2.12,2.12,0,0,1,1.13,1.47l.12-.45c-.84.86-2.5,2.07-3.51.72-.52-.68-.07-1.37.71-1.52a3.13,3.13,0,0,1,2.05.6l-.1-.72c-1.07,1.11-2.83.47-4.18.49a3.1,3.1,0,0,0-2.89,1.44.46.46,0,0,0,.79.47,7.86,7.86,0,0,0,1.48-5.18.46.46,0,0,0-.9-.12c-.69,1.81,1.37,2.68,2.63,3.29a2.08,2.08,0,0,1,1.25,2.47,3.61,3.61,0,0,1-2,2.12l.67.28a4.81,4.81,0,0,1,.78-5h-.65a4.35,4.35,0,0,1-1.21,6.69l.63.63c.43-.68,1.66-.52,2.35-.62a1.74,1.74,0,0,0,1.59-1.16.47.47,0,0,0-.45-.58,4.07,4.07,0,0,0-3.88,2.35,4.12,4.12,0,0,0,.78,4.39.47.47,0,0,0,.65,0A21.85,21.85,0,0,1,78,85.21c.52-.31.07-1-.46-.79a7.56,7.56,0,0,1-3.48.59.46.46,0,0,0-.12.9A4.24,4.24,0,0,1,76,87l.56-.72A1.44,1.44,0,0,1,78,83.79c.32.15.84-.11.68-.52a2.44,2.44,0,0,1,1-3l-.46-.79c-.57.36-1.22-.23-1.18-.83s.69-1.11,1.28-1.3a.49.49,0,0,0,.32-.57A3.65,3.65,0,0,0,77,74.14c-.35-.09-.77.34-.51.67a9.4,9.4,0,0,0,2.68,2,2.91,2.91,0,0,1,1.38,1.55c.17.66-.34,1.57-1.11,1.31v.88a1.27,1.27,0,0,1,.92,0l-.11-.83a1.59,1.59,0,0,1-2-.56l-.52.68a6.79,6.79,0,0,1,4.72,2.89l.72-.56a1.91,1.91,0,0,0-3.15.61.47.47,0,0,0,.12.45c1.06,1.14,3.24,1.28,3.66-.54a1.67,1.67,0,0,0,0-.94,1.43,1.43,0,0,0-.25-.43c-.11-.13-.42-.28-.48-.42-.19-.43.37-.67.64-.77a4,4,0,0,1,.75-.2,4.44,4.44,0,0,1,2.08.15l-.32-.32A1.14,1.14,0,0,1,85,81a1.36,1.36,0,0,1-1.22-1.39l-.23.39.7-.42-.63-.17A4.5,4.5,0,0,1,83.81,84l.84.11a9.72,9.72,0,0,0-2.82-5l-.56.72A7,7,0,0,0,87.35,81l-.52-.21a2.31,2.31,0,0,1-.67,3.41,1.56,1.56,0,0,1-2.24-1.84l-.45.34c.6-.08.69.66.45,1a3.61,3.61,0,0,1-1,.91,3.87,3.87,0,0,0-1.4,1.47C81,87.41,82,88.59,83,89.31l.46-.79a8,8,0,0,0-3.67-1.34c-.33,0-.49.32-.45.58.33,1.87,2.8,1.71,3.64.34.37-.59.78-1.76.18-2.3a2.06,2.06,0,0,0-2.47-.1.47.47,0,0,0-.21.51,38.49,38.49,0,0,0,1.63,5.46l.21-.52a4.84,4.84,0,0,1-6.19-2l-.4.69A1.73,1.73,0,0,1,77,92.62l.73.09L77.16,92l-.52.67c1.82.43,3.16,2.41,5.2,2,1.64-.34,2-2.06,1.38-3.41-.74-1.69-2.43-2.27-3.67-3.47a2.41,2.41,0,0,1-.78-2.46,2.47,2.47,0,0,1,2-1.78l-.4-.23.36.71.07-.56a1.48,1.48,0,0,1-2.13-.1l-.45.76c3.4.78,5.35,4,7,6.85l.4-.7A19,19,0,0,1,80.37,89,13.87,13.87,0,0,1,78,87.94c-.58-.35-1.66-1.48-.56-2a.46.46,0,0,0,0-.79,10.13,10.13,0,0,0-5.06-2.07A5.85,5.85,0,0,0,70,83.7a5.13,5.13,0,0,1-2.86.76l.11.84a2.86,2.86,0,0,1,2.11-.54L69,84.2a2.68,2.68,0,0,1-1.17,1.71.47.47,0,0,0-.09.72,4.13,4.13,0,0,1,1.06,2l.32-.56a1.26,1.26,0,1,1-.31-2.41c1.28.11,2.26,1.25,3.58,1.27a2.09,2.09,0,0,0,2.13-2c0-.55-.15-1-.74-1a2.17,2.17,0,0,0-1.72.85.45.45,0,0,0-.07.55,5,5,0,0,0,4.32,1.92c2.19-.07,4.15-1.2,6.16-1.94L82,85.11c.52.6.17,1.51,0,2.19a3.06,3.06,0,0,0,0,1.41A1.57,1.57,0,0,0,83.87,90l-.58-.44a2.06,2.06,0,0,1-1.79,1.77c-.56.09-.34.84.12.9,1.17.15,2.33.32,3.5.45a2,2,0,0,0,2.08-.86c1-1.67,1.12-4.2.88-6.09l-.69.39,2.32,1.19.23-.86A1.36,1.36,0,0,1,88.5,85h-.88l.34.88.21-.52L84.2,88l.68.52C86,84.65,86.33,80,83.51,76.82c-.37-.42-.92.12-.72.56a49.69,49.69,0,0,0,4.39,7.87.47.47,0,0,0,.84-.11,4.76,4.76,0,0,1,2-2.34l-.63-.63-1.7,3.67a.47.47,0,0,0,.28.68c1.76.43,1.74,2.53,1.32,3.93S88.14,93.51,87.55,95l.76-.2-.49-.62-.65.65a4.05,4.05,0,0,0,1.64.8.49.49,0,0,0,.52-.21l.45-.76c.27-.47-.34-.88-.73-.56a5.52,5.52,0,0,1-3.49,1.33l.4.23-.65-1.37-.17.63a10.51,10.51,0,0,1,5.79-1.25.45.45,0,0,0,.45-.46,2.75,2.75,0,0,0-1-1.89.47.47,0,0,0-.65,0c-1.46,1.45-3.14,3.74-2.82,5.92.24,1.66,2.23,2.94,3.65,1.69l-.77-.45A2.58,2.58,0,0,1,87,100.74c-1.17-.18-2.88-1.74-1.79-2.95A2.24,2.24,0,0,1,88,97.64a6.86,6.86,0,0,1,2.09,3.24l.32-.56A3,3,0,0,1,87.15,99l-.62.63a2.32,2.32,0,0,0,3.2-1l-.84-.35c-.53,1.61-1.46,4.13-3.62,3.83V103a1,1,0,0,1,.91.35l.2-.77a2.5,2.5,0,0,1-2.84-1.92l-.83.35a3.31,3.31,0,0,0,2.53,1.8.49.49,0,0,0,.51-.21,1.54,1.54,0,0,0-.11-1.93c-.23-.29-.67-.09-.77.2a3.44,3.44,0,0,1-5.25,1.51l-.21.77A2.09,2.09,0,0,1,82,105.4l.46-.46-3,.12a.46.46,0,0,0-.32.78,2.06,2.06,0,0,0,.76.58.47.47,0,0,0,.63-.16c.59-1.25,2.37-1.07,3.21-.17a3.88,3.88,0,0,1,.89,2.26,9.15,9.15,0,0,1,0,1.17,4.43,4.43,0,0,1-.28,1l-.32.79a4.12,4.12,0,0,1,2.78.78l.46-.8a3.47,3.47,0,0,1-1.54-1.22l-.07.56a.65.65,0,0,1,1,.47l.33-.44a5.68,5.68,0,0,1-5.86-1.87l-.09.72a3.06,3.06,0,0,1,.65-.38c.08,0,.87.26.58.48l.69.39c0-.32.94.08,1,.12a12.23,12.23,0,0,1,1.34.81A17.93,17.93,0,0,1,88,113.11c1,1,2.76,2.18,4,.81a.46.46,0,0,0-.09-.72c-1.64-.71-3.28-1.41-4.91-2.13a4.2,4.2,0,0,1-1.81-1.15,1.25,1.25,0,0,1-.23-1.28.64.64,0,0,1,1-.11l.45-.77a1.43,1.43,0,0,1-.94-2l-.32.32,1.1-.39-.45-.11.66.64-.12-.45A.27.27,0,0,1,86,106l-.21.77,5.43-.75a.46.46,0,0,0,.21-.76,3.54,3.54,0,0,0-1.71-.7,4.69,4.69,0,0,1-.84-.21.93.93,0,0,1-.58-.48c-.05-.15-.1-.65.29-.52l-.32-.32c.26.69-.8.72-1,0a1.21,1.21,0,0,1,.6-1.3c.85-.51,2.26.36,1.56,1.34a.86.86,0,0,1-1.13.15c-.5-.37-.21-1,.16-1.31a8.94,8.94,0,0,1,2.34-1.15,2.28,2.28,0,0,0,.83-3.65,5.44,5.44,0,0,1-1.21-2.45,3.84,3.84,0,0,1,.8-2.81l-.63.16a1.62,1.62,0,0,1,.56,2.21,1.59,1.59,0,0,1-2.43.08l-.2.77a3.86,3.86,0,0,1,3.92.83.47.47,0,0,0,.72-.09,3.47,3.47,0,0,0,.48-2.66A3.89,3.89,0,0,0,92,91a4.06,4.06,0,0,1-1.36-1.31c-.31-.62-.1-1.32.67-1.34,1.52,0,1.29,1.84.59,2.63l.72.1c-1.8-3,0-7.89-3.66-9.87a.48.48,0,0,0-.63.17c-.8,1.42.57,2.54,1.53,3.39a2.47,2.47,0,0,1,.85,1.15c.14.65-.39.87-.94.78-.95-.16-1.34-1.07-1.51-1.91-.27-1.44-.12-3.08-1.18-4.24a3.53,3.53,0,0,0-1.58-.9c-.6-.2-1.51-.32-1.76-1l-.32.57a7.48,7.48,0,0,1,2.09-.48c.41,0,.69-.65.23-.85a1.09,1.09,0,0,1-.5-1.58l-.63.17c.38.29,0,.82-.37.85s-.76-.38-.87-.76l-.12.44c1-.82,2.38.9,2.89,1.59A15.85,15.85,0,0,1,88,81.84a.49.49,0,0,0,.57.32A1.87,1.87,0,0,0,90,80.85a.45.45,0,0,0-.21-.52,27.86,27.86,0,0,0-11.1-3.88.47.47,0,0,0-.44.34,5.67,5.67,0,0,1-4.53,3.5l.45.11a8.82,8.82,0,0,1-1.61-2.48c-.17-.38-.74-.23-.84.11-.24.76-.47,1.52-.68,2.28a7.35,7.35,0,0,0-.47,2A1.5,1.5,0,0,0,72.36,84a.46.46,0,0,0-.13-.9,2.54,2.54,0,0,1-2.55-2.39l-.34.45a1.11,1.11,0,0,1,1.25.22c.2.19.52.92.21,1.18s-.93.1-1.18.06a3.21,3.21,0,0,1-1-.31,3.16,3.16,0,0,1-.81-.6c-.27-.28-.39-.36-.16-.72a1.65,1.65,0,0,1,1.92-.67l-.2-.77a2.56,2.56,0,0,1-2.63.35l.23.39a2.6,2.6,0,0,1,.2-1.13c.12-.28,0-.73-.4-.69-.17,0-1.44.06-1.07-.36L65,77.87a1.09,1.09,0,0,1-.64,1.28c-.19.09-.48.19-.58,0s.18-.7.36-.83l-.63-.63a1,1,0,0,1-1.69-.43c0-.32-.44-.38-.68-.27a2.19,2.19,0,0,1-1.24.17,2.26,2.26,0,0,1-.56-.17c0,.14.12.18.27.13l.07-.55c-.54.43-.83-.59-.78-.94a3.75,3.75,0,0,1,.54-1.21,4.56,4.56,0,0,0,.71-1.84l-.46.46a3.1,3.1,0,0,1,2.42.86l.21-.77A1.71,1.71,0,0,1,60.15,71h-.88a4.54,4.54,0,0,1-.2,3,1.46,1.46,0,0,1-2.07.55c-.33-.22-.49-.17-.9-.14a7.54,7.54,0,0,1-1.5-.06,7.83,7.83,0,0,1-3-1.09l.17.63c.22-.35.87-.69,1.26-.39s0,1.13,0,1.46.23.44.46.46l.45.4.12-.45a5,5,0,0,1-4.51,1.4.47.47,0,0,0-.57.57,1.75,1.75,0,0,1-1.5,2.11c-.37,0-.4.54-.2.76.6.68-.93,1.54-1.36,1.75a7.32,7.32,0,0,1-2.64.69A4.67,4.67,0,0,1,41,82.38a1.51,1.51,0,0,1-.81-.68c-.17-.43.29-.51.61-.69l-.67-.27c.19.77-1.18.26-1.38.19l.28.67a1.1,1.1,0,0,1,.46-.56.27.27,0,0,1,.35-.09c.2,0,.26,0,.17.25l.21.52c.15-.59.19-1,.9-1a1.3,1.3,0,0,1,1.17.76c.15.36.82.51.89,0a.65.65,0,0,1,.78-.62l-.4-.23a.74.74,0,0,1,0,1L44,81.5c.06,0,0-.2.17-.21l-.4-.69c-.73,1.07,0,2.42-.79,3.53-.91,1.32-2.62,1.68-4.08,2a.47.47,0,0,0-.32.57,19.73,19.73,0,0,1,.09,7.58.47.47,0,0,0,.32.57A2.57,2.57,0,0,1,40.78,96v-.46c-.14.21-.34-.33-.36-.49a2.37,2.37,0,0,1,0-.53l-.23.4a2.07,2.07,0,0,1,1.56-.18l-.33-.44c-.06.43-.87.62-.87,0a.94.94,0,0,1,.84-.86L40.85,93a.62.62,0,0,1-.71.51l.46.46c-.06-1.51,2-2.1,3.13-2.54l4.85-2a.48.48,0,0,0,.34-.44,1.42,1.42,0,0,1,1.39-1.28l-.4-.23a.76.76,0,0,1-.3,1l.77.21a2.23,2.23,0,0,1,1.22-2.51h-.47a.52.52,0,0,1,.09.88l.63.63a12,12,0,0,1,3.53-3.68,2.82,2.82,0,0,1,2.54-.43,6.86,6.86,0,0,1,2.2,1.51.47.47,0,0,0,.72-.1,2.67,2.67,0,0,1,1.61-1.53L61.89,83a1.73,1.73,0,0,1-1.45,1.3l.52.68a2.42,2.42,0,0,1,.55-.81A.61.61,0,0,1,62,83.9c.36.18.41.27.15.28l.39.69a3,3,0,0,1,2.25-1.53l-.51-.21a.92.92,0,0,1-.11,1.09c-.27.36.27.9.63.63l1.55-1.16a.46.46,0,0,0-.46-.8l-1.79.9a.47.47,0,0,0,.11.84q7,2,14.16,3.61L78,87.92c.09.63-.78.56-1.07.41a1.88,1.88,0,0,1-.67-.78,6.38,6.38,0,0,1-.66-1.8c-.35-1.49.05-3-.18-4.44-.32-2-3-5-1.19-6.93l-.72-.56a2.53,2.53,0,0,1-2.12,1.24l.44.58.92-3.53a.47.47,0,0,0-.21-.52L67.9,69.11l.09.72c1.68-1.91,5.35-2.17,6.88.1a2.2,2.2,0,0,1,.39,1.91c-.3.76-1.26.93-2,.92A4.16,4.16,0,0,1,69.7,70.6l-.28.67a3.47,3.47,0,0,1,4.66,2.43l.68-.52a.77.77,0,0,1,0-1.27,1.47,1.47,0,0,1,.93-.24c.16,0,1.19.08.68.51l.65.65a2.89,2.89,0,0,1,2.27-.68l-.46-.46a1.75,1.75,0,0,1-2.35,1.6l.34.45.07-1-.23.4a3.39,3.39,0,0,1,5,1.62l.32-.56c-2.68.94-5-1.16-6.91-2.75C73.4,70.06,71.36,68.63,69,69a5.13,5.13,0,0,0-2.78,1.51,4.55,4.55,0,0,1-1.6,1.07,3.94,3.94,0,0,1-2.23-.12,11.69,11.69,0,0,1-1.91-.76,1.8,1.8,0,0,1-.82-.61c-.2-.32-.12-.82.33-.8a.55.55,0,0,1,.45.73,1.2,1.2,0,0,1-.79.76,4.19,4.19,0,0,1-2.11.05,11.81,11.81,0,0,1-7-3.86l-.45.77c.95.34.13,1.72-.37,2-.83.55-1.84.73-2.69,1.25a.47.47,0,0,0,.11.84,6,6,0,0,0,3.92-1c1-.54,2.85-1.29,3.75-.13l.07-.56a2.39,2.39,0,0,1-3.34-.27v.64a3.2,3.2,0,0,1,4.45.11l.33-.78a2.88,2.88,0,0,1-2-.87v.65a5.12,5.12,0,0,1,8.33,1.16l.63-.63a8.7,8.7,0,0,0-5.82-.81c-.51.11-.38.9.12.9a6.85,6.85,0,0,0,2.58-.46c.46-.18.43-.91-.12-.9a24.35,24.35,0,0,0-8.65,1.66,24.87,24.87,0,0,0-3.83,1.91c-1.29.78-2.76,1.84-4.33,1.3-.45-.15-.74.45-.45.77A14,14,0,0,0,48.06,78l.24-.89-7.85-1.6.27.68c.38-.56,1.3-.22,1.48.33.31.9-.64,1.69-1.43,1.85-1.74.33-3.61-1-4.7-2.2a.46.46,0,0,0-.77.2A9.1,9.1,0,0,0,35.05,80c.1.75.24,2,1.12,2.29s1.53-.8,1.91-1.45l2.11-3.52a.46.46,0,0,0-.39-.69,5.54,5.54,0,0,0-3.17,1,3.91,3.91,0,0,0-1.17,1.12c-.27.48,0,1,.2,1.54a.45.45,0,0,0,.76.2,27.25,27.25,0,0,1,14.77-7.08L50.61,73c-.08.93-1,1.52-1.7,2s-1.48,1-2.23,1.55c-1.49,1-3,2-4.46,3.09a38.92,38.92,0,0,0-7.84,7.1c-.29.37.1,1.07.56.72a.74.74,0,0,1,1.2.44l.23-.4a1.92,1.92,0,0,1-2.65-2.28l-.44.34c2.67.28,2.72,3.7,2.65,5.69l.78-.33A7.12,7.12,0,0,1,35,86.26c-.07-1.05-.49-3.85,1-4.12l-.52-.21c.6,1.22-.29,2.64.07,3.94a1.92,1.92,0,0,0,1.9,1.61.47.47,0,0,0,.45-.58,4,4,0,0,0-1.26-1.58c-.28-.26-.62-.52-.43-.91s1.07-.78,1.5-1a16.12,16.12,0,0,1,6.82-1.85l-.4-.69L41.75,85a7.89,7.89,0,0,0-1.43,3.42,2.2,2.2,0,0,0,1.43,2.19c1.06.45,2.41.38,2.89,1.64A13.2,13.2,0,0,1,45,96.32a4.55,4.55,0,0,1-.08,1.84c-.16.4-.34.27-.27-.11a4,4,0,0,1,.34-.89,7.57,7.57,0,0,0,.42-3.63,9.78,9.78,0,0,1,0-2,7.34,7.34,0,0,1,.82-2.11,3.9,3.9,0,0,0,.46-3.31,2,2,0,0,0-2.28-1.37c-.57.13-.33,1,.25.88s1.06.43,1.24,1a2.73,2.73,0,0,1-.3,2,9.2,9.2,0,0,0-1.17,3.6c0,1.4.34,2.91-.2,4.26-.28.72-1,1.85-.28,2.56s1.51.14,1.79-.57a3.37,3.37,0,0,0,.17-1.34c0-.86,0-1.72-.07-2.58a6.23,6.23,0,0,0-.61-3.25c-.61-1-1.67-1.13-2.68-1.43-.75-.22-1.34-.64-1.29-1.5a5,5,0,0,1,.86-2.18l2.79-4.91a.46.46,0,0,0-.39-.69,16.88,16.88,0,0,0-8,2.36c-.75.45-1.65,1.08-1.26,2.08s1.42,1.19,1.71,2.07l.44-.58c-1.2.1-1.12-1.64-1-2.4a4.33,4.33,0,0,0-.18-2.71.45.45,0,0,0-.51-.21c-1.95.37-1.75,3.07-1.68,4.53.09,2.11.48,4.27,2,5.82a.47.47,0,0,0,.79-.32c.09-2.61-.29-6.26-3.57-6.61a.45.45,0,0,0-.44.34,2.84,2.84,0,0,0,4,3.31.42.42,0,0,0,.23-.39,1.66,1.66,0,0,0-2.59-1.23l.56.72a41.07,41.07,0,0,1,8.71-7.71c1.55-1.09,3.13-2.14,4.68-3.22,1.26-.87,3-1.77,3.11-3.47,0-.33-.32-.48-.58-.44a28.05,28.05,0,0,0-15.18,7.31l.77.2L36.23,79l-.12.44a4.7,4.7,0,0,1,3.69-1.87l-.4-.69L38.12,79l-.68,1.13a3.74,3.74,0,0,1-.66,1c-.49.35-.61-.22-.7-.61a8.2,8.2,0,0,1-.2-1.38,8.46,8.46,0,0,1,.3-2.6l-.76.2c1.59,1.76,5.54,4,7.34,1.28a2,2,0,0,0-.33-2.74,1.76,1.76,0,0,0-2.5.37.46.46,0,0,0,.28.67L48.06,78a.46.46,0,0,0,.24-.89,12.92,12.92,0,0,1-4.93-3.24l-.44.77a4.54,4.54,0,0,0,3.68-.6c1.38-.73,2.65-1.6,4.08-2.24a23.43,23.43,0,0,1,9.29-2l-.12-.91a6.48,6.48,0,0,1-2.34.44l.13.9a7.67,7.67,0,0,1,5.11.71.46.46,0,0,0,.63-.63A6,6,0,0,0,53.61,69a.47.47,0,0,0,0,.65,3.86,3.86,0,0,0,2.68,1.14.46.46,0,0,0,.32-.78,4.12,4.12,0,0,0-5.75-.11.46.46,0,0,0,0,.64,3.31,3.31,0,0,0,4.64.28.44.44,0,0,0,.07-.55,3,3,0,0,0-3.3-.9c-1.66.4-3.12,2-4.92,1.62l.11.84c1.23-.75,3-.89,3.68-2.34a1.84,1.84,0,0,0-.84-2.64c-.46-.17-.72.45-.44.77a12.65,12.65,0,0,0,8,4.17c1.3.15,3,0,3.43-1.53a1.43,1.43,0,1,0-2.22.64,5.8,5.8,0,0,0,1.94,1,7.63,7.63,0,0,0,2.53.66c1.81.08,2.7-1.11,4-2.08,1.53-1.12,3.51-.64,5,.28,2.93,1.79,5.68,5.75,9.63,4.35a.45.45,0,0,0,.32-.56,4.38,4.38,0,0,0-5.49-2.65,2.38,2.38,0,0,0-1,.55c-.25.33-.18.88-.21,1.28a.48.48,0,0,0,.34.44,2.68,2.68,0,0,0,3.51-2.49.47.47,0,0,0-.46-.46,3.73,3.73,0,0,0-2.92,1c-.45.39.2,1,.65.65a1.14,1.14,0,0,0,.09-1.68,2.77,2.77,0,0,0-2.4-.25c-1.25.46-1.74,2.38-.41,3.07a.46.46,0,0,0,.67-.52,4.38,4.38,0,0,0-5.79-3.07.48.48,0,0,0-.28.68,5.12,5.12,0,0,0,4.59,2.62c1.89-.08,3.26-1.43,2.59-3.36-1.25-3.58-6.48-3.71-8.74-1.14a.47.47,0,0,0,.1.72l4.67,2.48-.21-.52L71,75.4a.46.46,0,0,0,.44.58,3.49,3.49,0,0,0,2.91-1.7.46.46,0,0,0-.72-.55A4.07,4.07,0,0,0,73.18,78c.37.94.9,1.82,1.2,2.79a11.52,11.52,0,0,1,.13,3.37c0,1.57.44,3.8,1.77,4.83a1.58,1.58,0,0,0,2.64-1.29.46.46,0,0,0-.33-.32q-7.11-1.67-14.16-3.62l.11.84,1.79-.89-.46-.8-1.55,1.17.62.63a1.8,1.8,0,0,0,.11-2,.47.47,0,0,0-.52-.21,3.83,3.83,0,0,0-2.8,2,.46.46,0,0,0,.4.69,1,1,0,0,0,.68-1.86c-1.09-.85-2.16.34-2.65,1.23a.47.47,0,0,0,.52.68,2.62,2.62,0,0,0,2.09-2,.46.46,0,0,0-.56-.56,3.55,3.55,0,0,0-2.16,2l.72-.09c-1.47-1.31-3.19-2.5-5.19-1.59a11.63,11.63,0,0,0-4.53,4.38.47.47,0,0,0,.63.63,1.42,1.42,0,0,0,.64-1.46c-.08-.48-.5-1.16-1.08-1.06s-1.26.93-1.52,1.47A3.11,3.11,0,0,0,49.5,89a.46.46,0,0,0,.76.2,1.68,1.68,0,0,0,.45-2.12.47.47,0,0,0-.4-.23A2.37,2.37,0,0,0,48,89.05l.34-.44c-2,.81-4.07,1.57-6.07,2.43-1.24.54-2.65,1.41-2.59,2.94a.47.47,0,0,0,.46.46A1.55,1.55,0,0,0,41.77,93c0-.32-.33-.49-.59-.44a1.83,1.83,0,0,0-1.36,1.1,1.63,1.63,0,0,0,.1,1.63c.86.86,2.33,0,2.46-1a.46.46,0,0,0-.34-.44A2.9,2.9,0,0,0,40,94c-.55.27-.56.85-.45,1.41a1.13,1.13,0,0,0,2,.58.47.47,0,0,0,0-.46A3.46,3.46,0,0,0,39.26,94l.32.57a20.93,20.93,0,0,0-.1-8.08l-.32.57a7.63,7.63,0,0,0,4.3-2,3.59,3.59,0,0,0,.84-1.63c.16-.75-.16-1.68.29-2.34a.46.46,0,0,0-.4-.69c-1,.06-1.56,1.67-.42,2a.45.45,0,0,0,.45-.12c.49-.53.8-1.8,0-2.26s-1.79.48-1.9,1.23h.89a2.23,2.23,0,0,0-2-1.43,2.18,2.18,0,0,0-1.22.28c-.51.31-.52.85-.65,1.4a.44.44,0,0,0,.21.51,1,1,0,0,0,1.28-1.49c-.78-1.1-2.12-.26-2.6.64a.47.47,0,0,0,.28.67,2.12,2.12,0,0,0,2,0,1.22,1.22,0,0,0,.5-1.34.46.46,0,0,0-.67-.27c-.5.28-1,.43-1.12,1a1.62,1.62,0,0,0,.46,1.3,4.44,4.44,0,0,0,3.6,1,7.52,7.52,0,0,0,4-1.35c.82-.63,1.44-1.77.65-2.66l-.21.77a2.65,2.65,0,0,0,2.15-3.24l-.56.57A6,6,0,0,0,54.75,76a.47.47,0,0,0,.12-.45,1.4,1.4,0,0,0-1.34-1.07L54,75c.05-.48.31-1.37.08-1.82a1.54,1.54,0,0,0-1-.59,2,2,0,0,0-2.12.88.47.47,0,0,0,.17.63,8.7,8.7,0,0,0,3.64,1.23,8.23,8.23,0,0,1,1.75.08,2.67,2.67,0,0,0,1.21.36c2.6-.09,2.7-3,2.39-5-.07-.49-.75-.39-.88,0A2.63,2.63,0,0,0,62.54,74a.47.47,0,0,0,.2-.77,4,4,0,0,0-3.07-1.13.48.48,0,0,0-.46.46c-.16,1.38-1.79,2.51-1.15,4a1.46,1.46,0,0,0,2.25.63.45.45,0,0,0,.07-.56,1.08,1.08,0,0,0-2,.41c-.06.62.6.84,1.1,1a3.15,3.15,0,0,0,2.07-.24l-.68-.28a1.88,1.88,0,0,0,3.37.65c.24-.37-.24-.89-.62-.63-.92.65-1.32,2.63.25,2.64a2.06,2.06,0,0,0,2-2.54.46.46,0,0,0-.77-.2A1.07,1.07,0,0,0,65,78.81a1.8,1.8,0,0,0,1.81.55l-.39-.69a3.63,3.63,0,0,0-.33,1.59.46.46,0,0,0,.22.4,3.53,3.53,0,0,0,3.75-.49c.29-.23.09-.67-.21-.76a2.56,2.56,0,0,0-3.09,1.34c-.57,1.24,1.1,2.28,2.11,2.6a3.74,3.74,0,0,0,2,.11,1.16,1.16,0,0,0,1-1.26,2,2,0,0,0-2.71-2,.48.48,0,0,0-.34.44A3.48,3.48,0,0,0,72.23,84l-.12-.9c-1.13.32-.37-2-.25-2.41q.35-1.2.72-2.4l-.84.11A8,8,0,0,0,73.41,81c.55.49,1.56,0,2.15-.23A6.58,6.58,0,0,0,79.11,77l-.44.34a27,27,0,0,1,10.64,3.75l-.22-.52a1,1,0,0,1-.8.67l.57.32A14.73,14.73,0,0,0,86,77c-.91-.94-2.32-1.64-3.46-.71a.47.47,0,0,0-.12.45c.3,1,1.47,1.9,2.5,1.25A1.46,1.46,0,0,0,85,75.64a.46.46,0,0,0-.63.17,2,2,0,0,0,.84,2.83l.23-.86a8.83,8.83,0,0,0-2.33.51.46.46,0,0,0-.32.57c.63,1.69,2.75,1.13,3.69,2.43,1.14,1.58.27,3.88,1.58,5.41.82,1,3,1.43,3.48-.14a2.3,2.3,0,0,0-.76-2.16c-.58-.62-2.32-1.56-1.72-2.61l-.63.17c1.57.85,2,2.74,2.17,4.39s.22,3.57,1.16,5.14a.46.46,0,0,0,.72.09,2.7,2.7,0,0,0,.35-3.5,2.06,2.06,0,0,0-2.82-.25c-1.06,1-.3,2.51.61,3.28.64.54,1.46.94,1.85,1.71a2.51,2.51,0,0,1-.16,2.55l.72-.09a4.76,4.76,0,0,0-4.81-1.06.46.46,0,0,0-.21.76,2.43,2.43,0,1,0,3-3.73.48.48,0,0,0-.63.16,4.73,4.73,0,0,0-.77,4.12,6.7,6.7,0,0,0,1.12,2c.58.8.88,1.64-.08,2.29-1.15.76-2.78.82-3.43,2.23a1.61,1.61,0,0,0,1.43,2.27,1.68,1.68,0,0,0,1.75-2.09,2,2,0,0,0-2.74-1.38,2.11,2.11,0,0,0-1.09,3,1.42,1.42,0,0,0,2.55-.27c.5-1.46-1.53-1.45-1.83-.16-.48,2,2.49,1.74,3.43,2.5l.2-.77-5.43.75c-.37,0-.4.54-.2.76a1.18,1.18,0,0,0,1.67.07c.76-.66.1-1.21-.43-1.72a.44.44,0,0,0-.45-.12c-.47.16-1.16.24-1.41.7a2,2,0,0,0-.12,1.26,2.36,2.36,0,0,0,1.69,1.83.46.46,0,0,0,.45-.77,1.53,1.53,0,0,0-2.19-.07,2,2,0,0,0-.16,2.44,5.39,5.39,0,0,0,2.78,1.85L91.51,114l-.1-.72c-1,1.07-2.3-.37-3-1.07a17.3,17.3,0,0,0-2.62-2.13,4.66,4.66,0,0,0-2.47-1.1c-.61,0-1.24.35-1.16,1,0,.3.38.63.69.4a1.09,1.09,0,0,0,.13-1.71,1.94,1.94,0,0,0-1.06-.52c-.45,0-.85.33-1.23.54a.47.47,0,0,0-.09.73,6.55,6.55,0,0,0,6.76,2.1.45.45,0,0,0,.33-.44A1.57,1.57,0,0,0,85.11,110a.45.45,0,0,0-.07.55,4.31,4.31,0,0,0,1.87,1.56.46.46,0,0,0,.46-.8,5,5,0,0,0-3.24-.9.46.46,0,0,0-.32.78c.82.81,1.68-.32,1.8-1.13a6.28,6.28,0,0,0-.69-4c-1-1.73-4.09-2.43-5.13-.28l.63-.16a1.44,1.44,0,0,1-.57-.44l-.33.79,3-.12a.48.48,0,0,0,.46-.46,3,3,0,0,0-3.76-3.15.46.46,0,0,0-.2.77,4.37,4.37,0,0,0,6.79-1.91l-.77.2a.62.62,0,0,1,0,.81l.52-.21a2.53,2.53,0,0,1-2-1.37c-.25-.47-1-.14-.84.35a3.43,3.43,0,0,0,4,2.57.47.47,0,0,0,.21-.77,2,2,0,0,0-1.8-.59.47.47,0,0,0,0,.89c2.76.38,4-2.28,4.74-4.48a.46.46,0,0,0-.84-.35,1.39,1.39,0,0,1-1.94.65.46.46,0,0,0-.63.63,3.92,3.92,0,0,0,4.27,1.77.47.47,0,0,0,.32-.57c-.65-1.61-1.48-3.59-3.28-4.18-1.3-.42-3.12,0-3.62,1.43-.64,1.83,1.18,3.55,2.87,3.76a3.48,3.48,0,0,0,3.78-2.89.47.47,0,0,0-.77-.45,1.24,1.24,0,0,1-1.67-.24A2.37,2.37,0,0,1,88,95.78,9.16,9.16,0,0,1,90.4,92h-.65a1.87,1.87,0,0,1,.72,1.24l.46-.46a11.41,11.41,0,0,0-6.25,1.37.47.47,0,0,0-.16.63l.65,1.37a.44.44,0,0,0,.39.23,6.58,6.58,0,0,0,4.14-1.6L89,94.23l-.45.75.52-.21a2.94,2.94,0,0,1-1.23-.56.46.46,0,0,0-.65.65l.49.61a.46.46,0,0,0,.77-.2c.41-1,.82-2.06,1.22-3.09a10.17,10.17,0,0,0,.84-3,3.29,3.29,0,0,0-2.26-3.55l.28.67,1.7-3.66c.18-.4-.21-.88-.63-.63a5.65,5.65,0,0,0-2.44,2.88l.84-.11a49.65,49.65,0,0,1-4.4-7.87l-.72.56c2.58,3,2.11,7.28,1.13,10.79a.46.46,0,0,0,.67.51l4-2.66a.46.46,0,0,0,.21-.51l-.35-.88c-.14-.37-.8-.5-.88,0a2.27,2.27,0,0,0,2.32,2.66c.42,0,.66-.64.23-.86l-2.32-1.18c-.27-.14-.73,0-.69.4a10.6,10.6,0,0,1-.53,5.18c-.43,1-1.25.88-2.2.76l-2.81-.36.13.9a3,3,0,0,0,2.46-2.65c0-.32-.32-.49-.58-.44-1,.18-.59-1.95-.52-2.38a2.53,2.53,0,0,0-.45-2.29.42.42,0,0,0-.44-.11A27.5,27.5,0,0,1,77,86.19a4.32,4.32,0,0,1-4.2-1.4l-.07.56c.32-.32.66-.71,1.15-.51l-.32-.32A1.17,1.17,0,0,1,72.29,86a5.34,5.34,0,0,1-1.78-.7c-1-.48-2.12-.88-3.1-.19a2.17,2.17,0,0,0,2,3.83.48.48,0,0,0,.32-.56A5.11,5.11,0,0,0,68.38,86l-.09.72a3.65,3.65,0,0,0,1.59-2.26.47.47,0,0,0-.32-.57,3.81,3.81,0,0,0-2.82.63c-.29.21-.32.77.11.84,1.73.31,3-.85,4.62-1.21,2-.45,3.91.82,5.49,1.85v-.79a1.67,1.67,0,0,0-.82,2c.29,1,1.3,1.5,2.14,1.91a20.26,20.26,0,0,0,7.35,2,.46.46,0,0,0,.4-.69c-1.74-3-3.87-6.43-7.51-7.26a.46.46,0,0,0-.45.76,2.4,2.4,0,0,0,3.43.11.44.44,0,0,0,.07-.55l-.36-.71a.45.45,0,0,0-.39-.23,3.4,3.4,0,0,0-3,2.64c-.38,1.66.64,2.93,1.9,3.86a10.46,10.46,0,0,1,2.15,1.7c.51.63,1,1.72.5,2.48-.7,1-2.14.32-2.93-.17a8.44,8.44,0,0,0-2.58-1.33c-.35-.08-.76.33-.52.67l.55.76a.47.47,0,0,0,.72.1A2.66,2.66,0,0,0,75.74,89a.46.46,0,0,0-.39.69,5.76,5.76,0,0,0,7.44,2.28.45.45,0,0,0,.21-.52A37.94,37.94,0,0,1,81.38,86l-.21.52c.3-.21,1-.43,1.32,0s-.14,1-.29,1.2c-.46.73-1.78.93-2-.13l-.44.58A7.16,7.16,0,0,1,83,89.31c.49.33.93-.46.46-.79-.89-.64-1.67-1.64-.72-2.6.57-.58,1.35-.89,1.83-1.56.69-1,.36-2.82-1.11-2.62a.48.48,0,0,0-.44.33,2.48,2.48,0,0,0,3.09,3.09,3.19,3.19,0,0,0,1.5-4.88.47.47,0,0,0-.52-.21,6.09,6.09,0,0,1-5.36-1c-.42-.32-.93.36-.56.72a8.8,8.8,0,0,1,2.58,4.54.46.46,0,0,0,.84.11A5.42,5.42,0,0,0,84.42,79a.46.46,0,0,0-.62-.17l-.7.43a.44.44,0,0,0-.23.4,2.27,2.27,0,0,0,2.34,2.3A2.07,2.07,0,0,0,87,79.5a.45.45,0,0,0-.32-.32,5.33,5.33,0,0,0-2.83-.1A2.59,2.59,0,0,0,82,80.29c-.34.84.4,1,.78,1.59a.83.83,0,0,1-.39,1.21,1.47,1.47,0,0,1-1.61-.53l.12.44a1,1,0,0,1,1.61-.2c.34.39,1-.12.72-.55a7.65,7.65,0,0,0-5.26-3.32c-.36-.05-.76.3-.52.68a2.53,2.53,0,0,0,3.3.88.46.46,0,0,0-.11-.84,2,2,0,0,0-1.4,0,.46.46,0,0,0,0,.88c1.55.54,2.66-1.31,2.17-2.65-.69-1.88-3-2.11-4.09-3.58l-.52.67a2.72,2.72,0,0,1,2,2l.32-.57c-1.11.36-2.25,1.42-1.9,2.71a1.74,1.74,0,0,0,2.51,1.1c.5-.32,0-1.1-.46-.79a3.33,3.33,0,0,0-1.41,4.08l.68-.52a2.36,2.36,0,0,0-2.4,4.07c.43.31.93-.36.56-.72A5.08,5.08,0,0,0,74.2,85l-.12.9A8.46,8.46,0,0,0,78,85.21l-.46-.79a22.77,22.77,0,0,0-4.39,3.43h.65a3.09,3.09,0,0,1,2.45-5.17l-.44-.58c-.21.69-1.5.54-2.06.62a2.3,2.3,0,0,0-1.79.93c-.26.42.24.82.63.63A5.27,5.27,0,0,0,74,76.16a.46.46,0,0,0-.65,0,5.67,5.67,0,0,0-1,5.84.47.47,0,0,0,.67.28c1.57-.84,2.9-2.47,2.36-4.35a3,3,0,0,0-1.66-1.83c-.85-.42-2.7-.95-2.21-2.25l-.9-.13a7.09,7.09,0,0,1-1.35,4.71l.79.47c.64-1.27,2.36-1,3.53-.89a4,4,0,0,0,3.4-.86.47.47,0,0,0-.09-.73c-1.24-.71-3.24-1.3-4.15.26-.8,1.35.55,2.87,1.92,3A3.54,3.54,0,0,0,77,78.81c.65-.49,1.13-.82.81-1.64a3,3,0,0,0-1.42-1.56c-.57-.29-2.86-.27-2.62-1.24.06-.26-.13-.62-.44-.58a3.83,3.83,0,0,1-1.35,0c-.32-.08-1.09-.67-.57-1l-.63-.17a3.09,3.09,0,0,1-.6,3.79l.72.09a7.52,7.52,0,0,1-1.23-3.39.47.47,0,0,0-.33-.44c-1.78-.33-2.93,1.3-2.87,2.93a2.74,2.74,0,0,0,.78,2.11.89.89,0,0,0,1.43-.13.46.46,0,0,0-.39-.69,2.26,2.26,0,0,0-1.94,1.67c-.42,1.13-.09,2.6-1,3.48l.45-.12a10.69,10.69,0,0,0-7.1-.33l.35.84c1.54-.82,4.05-1.59,5.6-.4.64.49,1.13,1.63.5,2.32A1,1,0,0,1,63.43,84l-.45.58a7.26,7.26,0,0,1,2.66.36v-.89l-3.26,1.16a.47.47,0,0,0,0,.89c1.53.63,3.91.92,4.84-.83a2.2,2.2,0,0,0-1.08-3.22c-.59-.16-.78.67-.25.89a4,4,0,0,0,5.27-3.83l-.85.23a1.58,1.58,0,0,1-.3,2.17A1.17,1.17,0,0,1,68.26,81c-.65-1.37.35-2.85.77-4.13A6.76,6.76,0,0,0,67.36,70a.48.48,0,0,0-.65,0,2.27,2.27,0,0,0,1,3.69.47.47,0,0,0,.56-.33,2.12,2.12,0,0,0-1-2.64,1.2,1.2,0,0,0-1.29,0,1.64,1.64,0,0,0-.3,1.55,4,4,0,0,0,1,1.59c.51.56,1.31,1.17,1.36,2,.09,1.33-1.47.58-1.94.09a5,5,0,0,1-1.13-2.39l-.44.58A6.53,6.53,0,0,0,68,73.46a.45.45,0,0,0,.21-.52,1.72,1.72,0,0,0-2.78-.68.48.48,0,0,0-.07.56,2.23,2.23,0,0,0,2.56,1.25.46.46,0,0,0,.28-.67,6.15,6.15,0,0,0-2.86-2.64,2,2,0,0,0-2.87.94c-.89,2.29,1.63,4.47,3.82,3.91a.46.46,0,0,0,.32-.56h.54l.69-.39c-1.45-.82-2.43-2.81-4.37-2.51a1.91,1.91,0,0,0-1,3.19,2.32,2.32,0,0,0,2,.64c.87-.12,1.1-.57,1-1.42-.19-1.62-1.83-2.69-3.14-3.4l-.11.84A2.84,2.84,0,0,1,65,73l.45-.77a3.5,3.5,0,0,0-3.72,1,.45.45,0,0,0-.12.45,1.7,1.7,0,0,0,2.46.87c1-.64.55-2-.46-2.33a1.67,1.67,0,0,0-2.18,1.7c0,1.62,1.35,2.55,2.61,3.24l.11-.84a2.55,2.55,0,0,0,1.39,4.91.47.47,0,0,0,0-.89,2.17,2.17,0,0,0-2.59,2.12h.92a5.28,5.28,0,0,0-2.17-3.76c-.9-.64-2.65-1.42-3,.16-.35,1.4,1,2.19,2.26,1.81,1.86-.57,2-3.11,3.77-3.66l-.57-.32c.22,1.26.43,3.72-1.44,3.74-1.52,0-2.77-1.23-4.33-1.2a.46.46,0,0,0-.4.69,5,5,0,0,0,3.45,2.37.47.47,0,0,0,.52-.21,1.58,1.58,0,0,0-1.71-2.29c-1.13.28-2.13,2.19-1,3.06s2.11-.68,1.74-1.63a2,2,0,0,0-1.45-1.08c-.79-.21-2,0-2.54-.77-.34-.47-1.12,0-.8.47.9,1.45,1.47,3.41.6,5A3,3,0,0,1,53,86.22l.1.72c1.51-1.21,3.23-2.91,3.06-5A3.19,3.19,0,0,0,53,78.79c-.58,0-.59,1,0,.92a14.82,14.82,0,0,0,5.91-1.55c1.21-.6,3.06-2,1.9-3.53a1.55,1.55,0,0,0-1.57-.51c-.59.12-1.34.74-1.94.64-.79-.14-.83-2.39-.87-3a13.87,13.87,0,0,1,.27-3.69h-.89a7.29,7.29,0,0,1,0,4.48.47.47,0,0,0,.45.58c1,0,2.17-.14,2.28-1.31a1.07,1.07,0,0,0-1.75-.94A4.8,4.8,0,0,0,55.39,74,6.85,6.85,0,0,0,56,77.88a.43.43,0,0,0,.39.22c1.27-.09,1.19-1.55.92-2.46a9.59,9.59,0,0,0-2.36-3.94.46.46,0,0,0-.72.55,3.26,3.26,0,0,1,.18,3.34,2,2,0,0,1-2.62.82c-2.08-1.26,1-3.31.09-5-.74-1.46-2.49-.49-2.7.78-.29,1.72,1.7,2.42,3,2.63.48.08.84-.57.35-.84a4.81,4.81,0,0,0-5.2.36.47.47,0,0,0,.11.84,6.75,6.75,0,0,1,3.24,2.15A7.55,7.55,0,0,1,52.22,81,2.94,2.94,0,0,0,54,83.55c1,.41,2.42.2,3.23,1.06l.32-.79A3.91,3.91,0,0,1,54,82.29v.47a7.86,7.86,0,0,0,1.49-4.68.47.47,0,0,0-.58-.44,3.81,3.81,0,0,0-2.71,3.57h.92a43.83,43.83,0,0,1-.21-5.37l-.69.4a3.58,3.58,0,0,1,1.19,4.85c-1.06,1.65-3.32,2.4-3.49,4.6a2.16,2.16,0,1,0,4-1,6.2,6.2,0,0,0-2.2-2c-1-.58-2.41-1.48-2.16-2.79l-.56.32a2.92,2.92,0,0,1,2.19,3.24l.77-.21c-1.44-1.86-1.25-4.61-3.4-6a4.71,4.71,0,0,0-5.48.35.47.47,0,0,0,.2.77A5.34,5.34,0,0,0,49.31,77c.73-1,.07-2-.61-2.77a4.37,4.37,0,0,0-2.76-1.59,2.91,2.91,0,0,0-3.24,3.73c.74,2.54,3.44,3.3,5.34,4.76l.23-.85-5,.38c-.49,0-.67.79-.13.9a6.18,6.18,0,0,1,3.82,2.3c.35.49.36,1.12-.3,1.3a1.67,1.67,0,0,1-1.22-.28,3.24,3.24,0,0,1-.93-.65c-.32-.38-.13-.56.22-.85a2.44,2.44,0,0,0,.77-2.92,4.22,4.22,0,0,0-2.76-2.16.48.48,0,0,0-.45.12,2.06,2.06,0,0,0,.53,3.14,8,8,0,0,0,5.1,1.21.47.47,0,0,0,.4-.69,5.14,5.14,0,0,0-3.72-2.74,2.57,2.57,0,0,0-2.84,2.47,4.67,4.67,0,0,0,5.88,5,.47.47,0,0,0,.34-.44,4.66,4.66,0,0,0-.45-1.68c-.21-.51-.62-1.36-.25-1.91.63-.92,1.5.3,1.67.9A4.45,4.45,0,0,1,49,85.56c-.25,1.47-1.7,1.75-3,1.7a8.78,8.78,0,0,0-3.82.23c-.36.15-.51.8,0,.88a17,17,0,0,0,7-.24.45.45,0,0,0,.2-.76,3.79,3.79,0,0,0-5.17.11.46.46,0,0,0,.2.77c1,.36,2.86.51,3-1,.12-1.2-1.64-2.29-2.5-2.86a12.67,12.67,0,0,0-8.61-2.07.46.46,0,0,0,0,.92,6.6,6.6,0,0,1,5.55,5.12.46.46,0,0,0,.9-.12c-.09-1.42-.22-3.08-1.32-4.12a2.69,2.69,0,0,0-3.27-.48,2.37,2.37,0,0,0-.52,3.13c.71,1.31,2.26,1.76,3.62,2a.46.46,0,0,0,.36-.84,6.12,6.12,0,0,0-4.21-.84c-.53.08-.38.88.12.9a10.28,10.28,0,0,1,6.06,2.18l.2-.77a20.94,20.94,0,0,1-6.93.14l.2.76,2.64-2.41c.4-.36-.11-1-.55-.72a13.93,13.93,0,0,1-2.83,1.23c-.77.24-2.17.79-2.88.21-.5-.41-.6-1.24-.77-1.81a4.06,4.06,0,0,0-.83-1.61.48.48,0,0,0-.65,0c-1.11,1.26-1.69,3.69-.4,5.06.68.71,1.83.4,2.69.33l4.07-.35a.47.47,0,0,0,.4-.7c-1.45-2.13-4.89-2.42-6,.2a2.81,2.81,0,0,0,3.42,3.87c1.35-.43,1.68-1.71,2-3,.15-.68.47-1.89,1.39-1.83.69,0,1.22,1.09,1.21,1.72,0,.23.11.29-.17.41-.11,0-.49-.13-.61-.17l-1.09-.38a4.64,4.64,0,0,0-2.3-.29,2.68,2.68,0,0,0-2.22,2.59,2.25,2.25,0,0,0,2.77,2.08,2,2,0,0,0,1-3l-.4.69,3.89.1A6.53,6.53,0,0,0,44,92.4c.81-.42,1.24-1.33,1.94-1.9a5,5,0,0,1,2.87-1.09c.63,0,3.11.46,2,1.4a16.68,16.68,0,0,1-3.08,1.53c-1.72.86-3.38,2.14-3.79,4.12a.47.47,0,0,0,.32.57,14.73,14.73,0,0,0,8.68-.72L52.28,96a.54.54,0,0,1-.77.59l.34.45a5,5,0,0,0-9.47-3,.46.46,0,0,0,.27.67c1.16.39,2.44.19,3.58.6C48.11,96,47.36,98.24,46,99a3.78,3.78,0,0,1-3.67-.13A2.46,2.46,0,0,1,41.2,97.5c-.16-.51.25-1.08.75-.64a1.77,1.77,0,0,1,.34,1.33L43,97.8C41.08,97,39.5,95,37.3,95a3.52,3.52,0,0,0-3.49,3.47c0,1.83,2,3.32,3.27,1.49a25.38,25.38,0,0,0,1.72-3.56c.22-.46.68-1.41,1.3-.79s0,1.64-.32,2.25l.63-.16c-1.17-.85-2.51-1.71-4-1.37a2.25,2.25,0,0,0-1.85,2.44,2.79,2.79,0,0,0,2.15,2.35,4.1,4.1,0,0,0,3.8-1.59c.38-.45-.27-1.1-.65-.65Z"/><path class="cls-1" d="M46.53,73.36s3.68,3.06,3.06,12.86c-2.45,8.57-7.34,6.12-6.73.61C47,80.71,47.14,84.38,46.53,73.36Z"/><path d="M45.35,91.91a2,2,0,0,1-.35,0c-1.58-.31-2.51-2.43-2.22-5v0a34.72,34.72,0,0,1,2.39-3.1c1.74-2,1.74-2,1.31-9.71l0-.79.13.11s3.7,3.2,3.09,12.93C48.47,90.44,46.72,91.91,45.35,91.91Zm-2.42-5c-.27,2.48.63,4.57,2.09,4.86s3.22-1,4.5-5.52c.53-8.54-2.24-12-2.9-12.65l0,.42c.43,7.74.43,7.74-1.34,9.82A33.53,33.53,0,0,0,42.93,86.86Z"/><path class="cls-1" d="M91.84,81.94S77.15,88.06,77.15,96s8.57,4.9,9.79.61C79.59,97.85,80.82,91.12,91.84,81.94Z"/><path d="M80.94,101c-.21,0-.42,0-.62,0-1.21-.17-3.25-1-3.25-5,0-4.15,4-7.78,7.38-10.09a46.89,46.89,0,0,1,7.36-4.07l.47-.19-.39.32c-6.8,5.67-10.45,10.93-9.31,13.42.52,1.14,2,1.53,4.35,1.14l.12,0,0,.12A6.79,6.79,0,0,1,80.94,101ZM91.38,82.22C88.83,83.38,77.22,89,77.22,96c0,2.83,1.11,4.54,3.13,4.82a6.56,6.56,0,0,0,6.48-4.12c-2.33.37-3.84-.06-4.38-1.24C81.3,93,84.8,87.8,91.38,82.22Z"/><path d="M72.34,63.5C85,58,100.39,43.44,101.24,38.79,105.62,14.8,44,27,44,27L41.88,11Q35.57,26,28.56,40.24C35.35,46,43.11,53,48.73,61.06L46.82,43.39C82.36,38.06,107.07,32.24,72.34,63.5ZM17.15,23.08"/></svg>