<svg width="40" height="40" viewBox="0 0 40 40" fill="none" xmlns="http://www.w3.org/2000/svg">
<path d="M4 34.1179V5.88207C4.00016 3.16052 6.32201 1 9.10491 1H22.3571C23.6921 1 24.9568 1.50217 25.894 2.35013L26.077 2.52476L26.0971 2.5444L26.1027 2.55095L34.635 11.3939C35.5701 12.3421 36 13.5716 36 14.7294V34.1179C35.9998 36.8395 33.678 39 30.8951 39H9.10491C6.32201 39 4.00016 36.8395 4 34.1179ZM22.6183 4.76442L22.808 4.85501L23.0156 4.9205L32.0379 14.2699V35.2356H7.96205V4.76442H22.6183ZM10.2478 33.0003H29.7522V15.1583L21.8795 6.99971H10.2478V33.0003ZM6.28571 34.1179C6.28588 35.5448 7.522 36.7647 9.10491 36.7647H30.8951C32.478 36.7647 33.7141 35.5448 33.7143 34.1179V14.7294C33.7143 14.0953 33.478 13.4385 32.9911 12.9449L32.9821 12.9361L24.4397 4.08554L24.433 4.07899C23.9074 3.55719 23.1556 3.23529 22.3571 3.23529H9.10491C7.522 3.23529 6.28588 4.45517 6.28571 5.88207V34.1179Z" fill="white"/>
<path fill-rule="evenodd" clip-rule="evenodd" d="M22.378 5H9V35H31V14.384L22.408 5.014L22.402 5.012L22.378 5Z" fill="#6FBDD2"/>
<path d="M14.1529 13.0118C15.207 13.0118 16.0541 12.1647 16.0541 11.1106C16.0541 10.0565 15.207 9.20947 14.1529 9.20947C13.0988 9.20947 12.2517 10.0565 12.2517 11.1106C12.2517 12.1647 13.0988 13.0118 14.1529 13.0118Z" fill="#0A2A33"/>
<path fill-rule="evenodd" clip-rule="evenodd" d="M17.9739 17.153C17.9739 15.1201 16.261 13.6519 14.1528 13.6519C12.0445 13.6519 10.3316 15.1201 10.3316 17.153V18.113C10.3316 18.2824 10.4069 18.4519 10.5198 18.5648C10.6328 18.6777 10.8022 18.753 10.9716 18.753H17.3339C17.5034 18.753 17.6728 18.6777 17.7857 18.5648C17.8987 18.4519 17.9739 18.2824 17.9739 18.113V17.153ZM10.2939 22.706C10.2939 22.3316 10.4427 21.9724 10.7074 21.7077C10.9722 21.4429 11.3313 21.2942 11.7057 21.2942H24.8822C25.2566 21.2942 25.6157 21.4429 25.8805 21.7077C26.1452 21.9724 26.2939 22.3316 26.2939 22.706C26.2939 23.0804 26.1452 23.4395 25.8805 23.7043C25.6157 23.969 25.2566 24.1177 24.8822 24.1177H11.7057C11.3313 24.1177 10.9722 23.969 10.7074 23.7043C10.4427 23.4395 10.2939 23.0804 10.2939 22.706ZM10.2939 28.353C10.2939 27.9786 10.4427 27.6195 10.7074 27.3547C10.9722 27.09 11.3313 26.9413 11.7057 26.9413H24.8822C25.2566 26.9413 25.6157 27.09 25.8805 27.3547C26.1452 27.6195 26.2939 27.9786 26.2939 28.353C26.2939 28.7274 26.1452 29.0866 25.8805 29.3513C25.6157 29.6161 25.2566 29.7648 24.8822 29.7648H11.7057C11.3313 29.7648 10.9722 29.6161 10.7074 29.3513C10.4427 29.0866 10.2939 28.7274 10.2939 28.353Z" fill="#0A2A33"/>
<path fill-rule="evenodd" clip-rule="evenodd" d="M6 5.76471C6 3.69035 7.69035 2 9.76471 2H22.3576C23.4155 2 24.4132 2.448 25.1153 3.18776L25.1266 3.20094L33.2433 12.0518C33.9191 12.7727 34.2353 13.7158 34.2353 14.6118V34C34.2353 36.0744 32.5449 37.7647 30.4706 37.7647H9.76471C7.69035 37.7647 6 36.0744 6 34V5.76471ZM22.3558 5.76471H9.76471V34H30.4706V14.5967L22.384 5.77788L22.3784 5.776L22.3558 5.76471Z" fill="#0A2A33"/>
<path fill-rule="evenodd" clip-rule="evenodd" d="M20.5337 2C21.0329 2 21.5117 2.19832 21.8647 2.55133C22.2178 2.90434 22.4161 3.38312 22.4161 3.88235V12.7294H30.529C30.7762 12.7294 31.021 12.7781 31.2494 12.8727C31.4777 12.9673 31.6853 13.106 31.86 13.2808C32.0348 13.4555 32.1734 13.6631 32.2681 13.8914C32.3627 14.1198 32.4114 14.3646 32.4114 14.6118C32.4114 14.8589 32.3627 15.1037 32.2681 15.3321C32.1734 15.5605 32.0348 15.768 31.86 15.9428C31.6853 16.1176 31.4777 16.2562 31.2494 16.3509C31.021 16.4455 30.7762 16.4941 30.529 16.4941H20.5337C20.0345 16.4941 19.5557 16.2958 19.2027 15.9428C18.8497 15.5897 18.6514 15.111 18.6514 14.6118V3.88235C18.6514 3.38312 18.8497 2.90434 19.2027 2.55133C19.5557 2.19832 20.0345 2 20.5337 2Z" fill="#0A2A33"/>
</svg>
