<svg width="40" height="40" viewBox="0 0 40 40" fill="none" xmlns="http://www.w3.org/2000/svg">
<path d="M15.6 12.7C16.72 12.7 17.62 11.8 17.62 10.68C17.62 9.56003 16.72 8.66003 15.6 8.66003C14.48 8.66003 13.58 9.56003 13.58 10.68C13.58 11.8 14.48 12.7 15.6 12.7Z" fill="black"/>
<path fill-rule="evenodd" clip-rule="evenodd" d="M19.66 17.1C19.66 14.94 17.84 13.38 15.6 13.38C13.36 13.38 11.54 14.94 11.54 17.1V18.12C11.54 18.3 11.62 18.48 11.74 18.6C11.86 18.72 12.04 18.8 12.22 18.8H18.98C19.16 18.8 19.34 18.72 19.46 18.6C19.58 18.48 19.66 18.3 19.66 18.12V17.1ZM11.5 23C11.5 22.6022 11.658 22.2206 11.9393 21.9393C12.2206 21.658 12.6022 21.5 13 21.5H27C27.3978 21.5 27.7794 21.658 28.0607 21.9393C28.342 22.2206 28.5 22.6022 28.5 23C28.5 23.3978 28.342 23.7794 28.0607 24.0607C27.7794 24.342 27.3978 24.5 27 24.5H13C12.6022 24.5 12.2206 24.342 11.9393 24.0607C11.658 23.7794 11.5 23.3978 11.5 23ZM11.5 29C11.5 28.6022 11.658 28.2206 11.9393 27.9393C12.2206 27.658 12.6022 27.5 13 27.5H27C27.3978 27.5 27.7794 27.658 28.0607 27.9393C28.342 28.2206 28.5 28.6022 28.5 29C28.5 29.3978 28.342 29.7794 28.0607 30.0607C27.7794 30.342 27.3978 30.5 27 30.5H13C12.6022 30.5 12.2206 30.342 11.9393 30.0607C11.658 29.7794 11.5 29.3978 11.5 29Z" fill="black"/>
<path fill-rule="evenodd" clip-rule="evenodd" d="M5 5C5 2.796 6.796 1 9 1H22.38C23.504 1 24.564 1.476 25.31 2.262L25.322 2.276L33.946 11.68C34.664 12.446 35 13.448 35 14.4V35C35 37.204 33.204 39 31 39H9C6.796 39 5 37.204 5 35V5ZM22.378 5H9V35H31V14.384L22.408 5.014L22.402 5.012L22.378 5Z" fill="black"/>
<path fill-rule="evenodd" clip-rule="evenodd" d="M22.38 1C22.9104 1 23.4191 1.21071 23.7942 1.58579C24.1693 1.96086 24.38 2.46957 24.38 3V12.4H33C33.2626 12.4 33.5227 12.4517 33.7654 12.5522C34.008 12.6528 34.2285 12.8001 34.4142 12.9858C34.5999 13.1715 34.7472 13.392 34.8478 13.6346C34.9483 13.8773 35 14.1374 35 14.4C35 14.6626 34.9483 14.9227 34.8478 15.1654C34.7472 15.408 34.5999 15.6285 34.4142 15.8142C34.2285 15.9999 34.008 16.1472 33.7654 16.2478C33.5227 16.3483 33.2626 16.4 33 16.4H22.38C21.8496 16.4 21.3409 16.1893 20.9658 15.8142C20.5907 15.4391 20.38 14.9304 20.38 14.4V3C20.38 2.46957 20.5907 1.96086 20.9658 1.58579C21.3409 1.21071 21.8496 1 22.38 1Z" fill="black"/>
</svg>
