<svg width="40" height="40" viewBox="0 0 40 40" fill="none" xmlns="http://www.w3.org/2000/svg">
<path d="M32.4443 2.5C33.7852 2.5 35.0714 3.03237 36.0195 3.98047C36.9676 4.92857 37.5 6.21485 37.5 7.55566V32.4443C37.5 33.7852 36.9676 35.0714 36.0195 36.0195C35.0714 36.9676 33.7852 37.5 32.4443 37.5H7.55566C6.21485 37.5 4.92857 36.9676 3.98047 36.0195C3.03237 35.0714 2.5 33.7852 2.5 32.4443V7.55566C2.5 6.21485 3.03237 4.92857 3.98047 3.98047C4.92857 3.03237 6.21485 2.5 7.55566 2.5H32.4443Z" fill="#6FBDD2" stroke="white" stroke-width="3"/>
<path d="M32.4444 4C33.3874 4 34.2918 4.3746 34.9586 5.0414C35.6254 5.70819 36 6.61256 36 7.55556V32.4444C36 33.3874 35.6254 34.2918 34.9586 34.9586C34.2918 35.6254 33.3874 36 32.4444 36H7.55556C6.61256 36 5.70819 35.6254 5.0414 34.9586C4.3746 34.2918 4 33.3874 4 32.4444V7.55556C4 6.61256 4.3746 5.70819 5.0414 5.0414C5.70819 4.3746 6.61256 4 7.55556 4H32.4444Z" fill="#6FBDD2" stroke="#0A2A33" stroke-width="1.5"/>
<path d="M11.1973 15.0103C11.7771 15.0103 12.2475 15.0802 12.6074 15.2202C12.9671 15.3601 13.2567 15.5404 13.4766 15.7603C13.6965 15.9802 13.8467 16.2201 13.9268 16.48C14.0067 16.7399 14.0468 16.9901 14.0469 17.23C14.0469 18.05 13.9471 18.8905 13.7471 19.7505C13.5471 20.5904 13.4473 21.4805 13.4473 22.4204V23.7104C13.4473 24.6304 13.5471 25.5204 13.7471 26.3804C13.947 27.2202 14.0468 28.0601 14.0469 28.8999C14.0469 29.1398 14.0067 29.39 13.9268 29.6499C13.8468 29.8899 13.6966 30.1203 13.4766 30.3403C13.2567 30.5602 12.9671 30.7404 12.6074 30.8804C12.2475 31.0203 11.7771 31.0903 11.1973 31.0903C10.6173 31.0903 10.1368 31.0204 9.75684 30.8804C9.39687 30.7404 9.1067 30.5603 8.88672 30.3403C8.68676 30.1004 8.54679 29.8503 8.4668 29.5903C8.3868 29.3303 8.34669 29.0803 8.34668 28.8403C8.34668 28.4805 8.37657 28.1005 8.43652 27.7007C8.49652 27.3007 8.56648 26.8799 8.64648 26.4399C8.72647 26 8.79743 25.5502 8.85742 25.0903C8.91741 24.6304 8.94726 24.1704 8.94727 23.7104V22.4204C8.94727 21.9605 8.9174 21.5004 8.85742 21.0405C8.79743 20.5606 8.72646 20.1006 8.64648 19.6606C8.56648 19.2206 8.49652 18.7999 8.43652 18.3999C8.37657 18.0001 8.34668 17.6201 8.34668 17.2603C8.34668 17.0203 8.3868 16.7702 8.4668 16.5103C8.54677 16.2504 8.68684 16.0105 8.88672 15.7905C9.10668 15.5706 9.39692 15.3905 9.75684 15.2505C10.1368 15.0905 10.6173 15.0103 11.1973 15.0103ZM26.3584 14.7407C27.0982 14.7407 27.7981 14.8602 28.458 15.1001C29.138 15.3401 29.708 15.7207 30.168 16.2407C30.6279 16.7407 30.8584 17.4404 30.8584 18.3403C30.8584 19.1602 30.7585 20 30.5586 20.8599C30.3586 21.6999 30.2578 22.5908 30.2578 23.5308V23.7104C30.2578 24.6304 30.3586 25.5204 30.5586 26.3804C30.7585 27.2202 30.8584 28.0601 30.8584 28.8999C30.8584 29.1398 30.8182 29.39 30.7383 29.6499C30.6583 29.8899 30.5081 30.1203 30.2881 30.3403C30.0681 30.5603 29.7779 30.7404 29.418 30.8804C29.058 31.0203 28.5877 31.0903 28.0078 31.0903C27.4281 31.0903 26.9482 31.0203 26.5684 30.8804C26.2084 30.7404 25.9182 30.5603 25.6982 30.3403C25.4983 30.1004 25.3583 29.8503 25.2783 29.5903C25.1983 29.3303 25.1582 29.0803 25.1582 28.8403C25.1582 28.4805 25.1881 28.1005 25.248 27.7007C25.308 27.3007 25.378 26.8799 25.458 26.4399C25.538 26.0001 25.608 25.5502 25.668 25.0903C25.728 24.6304 25.7578 24.1704 25.7578 23.7104V23.5308C25.7578 20.7908 25.2979 19.3206 24.3779 19.1206C24.198 19.0806 23.9777 19.0601 23.7178 19.0601C23.478 19.0401 23.2182 19.07 22.9385 19.1499C22.6585 19.2099 22.3581 19.3303 22.0381 19.5103C21.7181 19.6703 21.3981 19.9203 21.0781 20.2603C20.9181 20.4202 20.7885 20.6106 20.6885 20.8306C20.5885 21.0505 20.5278 21.2801 20.5078 21.52C20.4878 21.68 20.4785 21.8302 20.4785 21.9702V23.7104C20.4785 24.6304 20.5783 25.5204 20.7783 26.3804C20.9783 27.2202 21.0781 28.0601 21.0781 28.8999C21.0781 29.1398 21.0277 29.39 20.9277 29.6499C20.8478 29.8899 20.6984 30.1204 20.4785 30.3403C20.2585 30.5603 19.9581 30.7404 19.5781 30.8804C19.2181 31.0203 18.7479 31.0903 18.168 31.0903C17.5882 31.0903 17.1084 31.0203 16.7285 30.8804C16.3686 30.7404 16.0784 30.5603 15.8584 30.3403C15.6384 30.1003 15.4779 29.8503 15.3779 29.5903C15.2979 29.3304 15.2578 29.0803 15.2578 28.8403C15.2578 28.4804 15.2887 28.1006 15.3486 27.7007C15.4086 27.3007 15.4786 26.8799 15.5586 26.4399C15.6386 26.0001 15.7086 25.5502 15.7686 25.0903C15.8285 24.6304 15.8584 24.1704 15.8584 23.7104V22.4204C15.8584 21.9605 15.8285 21.5004 15.7686 21.0405C15.7086 20.5607 15.6386 20.1005 15.5586 19.6606C15.4786 19.2206 15.4086 18.7999 15.3486 18.3999C15.2887 18 15.2578 17.6202 15.2578 17.2603C15.2578 17.0203 15.2979 16.7702 15.3779 16.5103C15.4779 16.2503 15.6384 16.0105 15.8584 15.7905C16.0784 15.5705 16.3685 15.3905 16.7285 15.2505C17.1084 15.0906 17.5882 15.0103 18.168 15.0103C18.708 15.0103 19.1586 15.0802 19.5186 15.2202C19.8984 15.3402 20.198 15.5007 20.418 15.7007C20.6378 15.9006 20.7984 16.12 20.8984 16.3599C20.9984 16.5999 21.0581 16.8406 21.0781 17.0806C21.4781 16.6006 21.9483 16.1603 22.4883 15.7603C23.0283 15.3603 23.6682 15.0804 24.4082 14.9204C24.9682 14.8004 25.6184 14.7407 26.3584 14.7407ZM11.1367 9.13037C11.9967 9.13037 12.687 9.34025 13.207 9.76025C13.747 10.1602 14.0166 10.6705 14.0166 11.2905C14.0165 11.9304 13.7469 12.4502 13.207 12.8501C12.687 13.2501 11.9967 13.4507 11.1367 13.4507C10.2568 13.4506 9.54679 13.2501 9.00684 12.8501C8.48701 12.4502 8.22663 11.9303 8.22656 11.2905C8.22656 10.6706 8.48688 10.1602 9.00684 9.76025C9.54679 9.34029 10.2568 9.13041 11.1367 9.13037Z" fill="white"/>
</svg>
