<svg id="Calque_1" data-name="Calque 1" xmlns="http://www.w3.org/2000/svg" viewBox="0 0 464 452.6"><path d="M482,247.14c-3.22-62.92-24.58-121.37-67.79-163.31-43.54-42.27-92.57-60.42-164.3-60.13l.45,8.91c-1,0-2,0-2.93,0A218,218,0,0,0,29.26,250.75c0,.32,0,.63,0,.95H18c0,60.22,22.59,116.59,63.6,158.74,41.32,42.47,97,65.86,156.78,65.86v-7.57c3,.12,6,.2,9.05.2A218,218,0,0,0,465.6,250.75c0-.92,0-1.85,0-2.77ZM263.84,69.76l85.31,173.69-85.31,6.4Zm0-25.27v-.12c101.52,8,182.67,89.54,190.06,191.24l-92.78,6.95ZM44.55,292.12A42,42,0,0,1,55,267.05c27.57-38.67,44.14-34.63,76.8-36.2l93.95.9v224.9C135.51,447.2,62.36,379.6,44.55,292.12ZM225.72,44.85V216.11H173.26c-68.87-4.91-92.68-37.12-96.14-80-.07-.9-.08-1.85-.06-2.81A207.17,207.17,0,0,1,225.72,44.85ZM64.9,153.12a109.61,109.61,0,0,0,7.49,22.07c6.8,14.68,26.71,33.13,38.87,40.92a156.22,156.22,0,0,0-37.91,12.6,73.08,73.08,0,0,0-25.82,21.2A114.33,114.33,0,0,0,40.62,260c-.14-3.07-.22-6.15-.22-9.26A205.89,205.89,0,0,1,64.9,153.12Zm174.74,304.5V43.88c2.59-.1,5.18-.16,7.79-.16.83,0,1.65,0,2.48,0v414c-.83,0-1.65,0-2.48,0C244.82,457.78,242.23,457.72,239.64,457.62Zm24.2-.49V263.81l91.92-6.89,48.45,98.64,10-4.91L367.73,256l86.71-6.5c0,.41,0,.81,0,1.22C454.46,359.39,370.35,448.74,263.84,457.13Z" transform="translate(-18 -23.7)"/></svg>