<svg width="40" height="40" viewBox="0 0 40 40" fill="none" xmlns="http://www.w3.org/2000/svg">
<path d="M6.66659 33.3332C5.74992 33.3332 4.96547 33.0071 4.31325 32.3548C3.66103 31.7026 3.33436 30.9176 3.33325 29.9998V9.99984C3.33325 9.08317 3.65992 8.29873 4.31325 7.6465C4.96659 6.99428 5.75103 6.66762 6.66659 6.6665H33.3333C34.2499 6.6665 35.0349 6.99317 35.6883 7.6465C36.3416 8.29984 36.6677 9.08428 36.6666 9.99984V29.9998C36.6666 30.9165 36.3405 31.7015 35.6883 32.3548C35.036 33.0082 34.251 33.3343 33.3333 33.3332H6.66659Z" fill="white"/>
<path d="M0.666504 10C0.666504 8.36971 1.27873 6.90799 2.42909 5.75955C3.57693 4.61366 5.03601 4.00198 6.66347 4H33.3332V6.66667H6.6665C5.75095 6.66778 4.96654 6.99448 4.31321 7.6467L4.19472 7.7704C3.6204 8.39739 3.33317 9.14055 3.33317 10V30C3.33428 30.9178 3.66098 31.7028 4.31321 32.355C4.9247 32.9665 5.65242 33.2913 6.49637 33.3294L6.6665 33.3333H33.3332C34.1937 33.3344 34.9375 33.0478 35.5645 32.4735L35.6882 32.355C36.2997 31.7425 36.6244 31.0142 36.6626 30.1701L36.6665 30V10C36.6675 9.14167 36.3808 8.3987 35.8067 7.77083L35.6882 7.6467C35.0349 6.99337 34.2498 6.66667 33.3332 6.66667V4C34.9633 4 36.4247 4.61201 37.5736 5.76085C38.7219 6.90915 39.3343 8.37011 39.3332 10V30C39.3332 31.6287 38.7227 33.0898 37.5754 34.2391C36.4262 35.3902 34.9634 36.0007 33.3332 35.9996V36H6.6665C5.03765 36 3.57617 35.3893 2.42735 34.2405C1.31467 33.1277 0.707361 31.722 0.668674 30.1554L0.666504 30.003V10Z" fill="white"/>
<path d="M6.66659 33.3332C5.74992 33.3332 4.96547 33.0071 4.31325 32.3548C3.66103 31.7026 3.33436 30.9176 3.33325 29.9998V9.99984C3.33325 9.08317 3.65992 8.29873 4.31325 7.6465C4.96659 6.99428 5.75103 6.66762 6.66659 6.6665H33.3333C34.2499 6.6665 35.0349 6.99317 35.6883 7.6465C36.3416 8.29984 36.6677 9.08428 36.6666 9.99984V29.9998C36.6666 30.9165 36.3405 31.7015 35.6883 32.3548C35.036 33.0082 34.251 33.3343 33.3333 33.3332H6.66659ZM19.9999 21.6665L33.3333 13.3332V9.99984L19.9999 18.3332L6.66659 9.99984V13.3332L19.9999 21.6665Z" fill="#6FBDD2"/>
<path d="M2.6665 10C2.6665 8.90492 3.06468 7.95119 3.84229 7.17491C4.61923 6.39931 5.57215 6.00134 6.66564 6H33.3332C34.4282 6 35.3823 6.39811 36.1596 7.17535C36.9366 7.95241 37.3343 8.90589 37.3332 10V30C37.3332 31.0947 36.936 32.0486 36.16 32.826C35.3835 33.6037 34.4291 34.0007 33.3332 33.9996L6.6665 34C5.57181 34 4.61821 33.6027 3.84185 32.8264C3.11401 32.0985 2.71888 31.2146 2.67128 30.2044L2.6665 30.0009V10ZM33.0593 9.39236C33.2495 9.30662 33.4711 9.3143 33.6565 9.4171C33.8684 9.53462 33.9998 9.75773 33.9998 10V13.3333C33.9998 13.5632 33.8814 13.777 33.6865 13.8989L20.3531 22.2322C20.137 22.3672 19.8627 22.3672 19.6465 22.2322L6.31321 13.8989C6.11828 13.777 5.99984 13.5632 5.99984 13.3333V10L6.00591 9.91016C6.03398 9.70355 6.15781 9.51992 6.34315 9.4171C6.55508 9.29964 6.81431 9.30609 7.0198 9.43446L19.9998 17.5469L32.9799 9.43446L33.0593 9.39236ZM20.3531 18.8989C20.137 19.0339 19.8627 19.0339 19.6465 18.8989L7.33317 11.2027V12.9635L19.9998 20.8802L32.6665 12.9635V11.2027L20.3531 18.8989ZM3.99984 29.9991L4.00288 30.1367C4.03368 30.8162 4.28951 31.3886 4.78456 31.8837C5.31263 32.4117 5.9279 32.6667 6.6665 32.6667H33.334L33.4712 32.6636C34.1499 32.6344 34.7216 32.3797 35.2164 31.8841C35.7449 31.3548 35.9998 30.7386 35.9998 30V9.99913L35.9968 9.86241C35.9676 9.18597 35.7131 8.61434 35.2169 8.11806C34.6874 7.58863 34.0715 7.33333 33.3332 7.33333H6.66737L6.53022 7.33637C5.85296 7.36715 5.28067 7.62279 4.78413 8.11849C4.25508 8.64665 3.99984 9.26176 3.99984 10V29.9991Z" fill="#0A2A33"/>
</svg>
