<?xml version="1.0" encoding="utf-8"?>
<!-- Generator: Adobe Illustrator 25.4.1, SVG Export Plug-In . SVG Version: 6.00 Build 0)  -->
<svg version="1.1" id="Calque_1" xmlns="http://www.w3.org/2000/svg" xmlns:xlink="http://www.w3.org/1999/xlink" x="0px" y="0px"
	 viewBox="0 0 60 60" style="enable-background:new 0 0 60 60;" xml:space="preserve">
<style type="text/css">
	.st0{fill:#FABC64;}
	.st1{fill:#FFFFFF;}
</style>
<g>
	<g>
		<path class="st0" d="M30,33.5c-6.5,0-27.5-0.4-27.5-5.6c0-5.2,21.1-5.6,27.5-5.6s27.5,0.4,27.5,5.6C57.5,33.1,36.5,33.5,30,33.5z"
			/>
		<path class="st1" d="M30,23.8c14.4,0,26,1.8,26,4.1S44.4,32,30,32S4,30.2,4,27.9S15.6,23.8,30,23.8 M30,20.8
			c-7.1,0-13.8,0.4-18.9,1.2C5,23,1,24.4,1,27.9s4.1,4.9,10.2,5.9C16.2,34.6,22.9,35,30,35s13.8-0.4,18.9-1.2
			c6.1-1,10.2-2.3,10.2-5.9S55,23,48.9,22C43.8,21.2,37.1,20.8,30,20.8L30,20.8z"/>
	</g>
	<g>
		<path class="st0" d="M30,17.2c-7,0-13.6-0.3-18.6-0.8c-7.6-0.8-9-1.8-9-3.4s1.4-2.6,9-3.4C16.4,9,23,8.7,30,8.7S43.6,9,48.6,9.5
			c7.6,0.8,9,1.8,9,3.4s-1.4,2.6-9,3.4C43.6,16.9,37,17.2,30,17.2z"/>
		<path class="st1" d="M30,10.2c14.4,0,26,1.2,26,2.7s-11.7,2.7-26,2.7S4,14.4,4,12.9S15.6,10.2,30,10.2 M30,7.2
			c-7.1,0-13.7,0.3-18.7,0.8C5.2,8.7,1,9.4,1,12.9s4.3,4.3,10.3,4.9c5,0.5,11.7,0.8,18.7,0.8s13.7-0.3,18.7-0.8
			c6-0.6,10.3-1.4,10.3-4.9S54.8,8.7,48.7,8C43.7,7.5,37.1,7.2,30,7.2L30,7.2z"/>
	</g>
	<g>
		<ellipse class="st0" cx="30" cy="46.4" rx="27.5" ry="7.9"/>
		<path class="st1" d="M30,40c14.4,0,26,2.9,26,6.4s-11.7,6.4-26,6.4S4,50,4,46.4S15.6,40,30,40 M30,37c-4.9,0-29,0.5-29,9.4
			s24.2,9.4,29,9.4s29-0.5,29-9.4S34.9,37,30,37L30,37z"/>
	</g>
</g>
</svg>
