<?xml version="1.0" encoding="utf-8"?>
<!-- Generator: Adobe Illustrator 25.4.1, SVG Export Plug-In . SVG Version: 6.00 Build 0)  -->
<svg version="1.1" id="Calque_2" xmlns="http://www.w3.org/2000/svg" xmlns:xlink="http://www.w3.org/1999/xlink" x="0px" y="0px"
	 viewBox="0 0 100 100" style="enable-background:new 0 0 100 100;" xml:space="preserve">
<style type="text/css">
	.st0{fill:#FFD7D7;}
	.st1{fill:#9C9CFF;}
	.st2{fill:#251FC4;}
	.st3{fill:#2C245F;}
	.st4{fill:#69989E;}
	.st5{fill:#273B44;}
	.st6{fill:#F4ED67;}
	.st7{fill:#BAA789;}
</style>
<polygon class="st0" points="16.93,32.68 16.93,29.13 29.26,15.32 33.01,14.18 47.14,2.25 50,13.95 74.94,2.25 71.59,16.12 
	96.04,13.72 86.02,29.13 98.1,40.27 86.87,44.32 95.35,50.52 98.1,63.34 90,62.29 96.04,73.55 90,75.63 90,84 82.36,84 82.36,94.2 
	73.89,90.33 68.97,95.35 27.85,95.35 18.23,97.41 6.34,91.22 5.01,78.61 14.15,73.55 7.53,65.22 8.22,62.29 3.63,50 7.3,48.06 
	4.78,32.72 "/>
<g>
	<polygon class="st1" points="32.04,49.63 40.83,57.9 40.83,77.04 37.79,77.04 37.97,63.01 32.04,57.79 	"/>
	<polygon class="st2" points="32.04,49.63 23.57,49.63 17.92,55.28 17.92,62.47 12.13,62.47 12.13,65.61 22.08,74.95 26.84,79.56 
		36.43,79.56 32.04,74.46 34.86,70.98 32.04,69.77 32.04,66.69 34.93,66.58 35,63.93 32.04,63.72 32.04,55.14 29.22,54.93 
		29.22,52.35 32.04,52.28 	"/>
	<polygon class="st2" points="14.15,59.4 14.15,51.73 6.34,51.73 	"/>
	<polygon class="st2" points="38.91,26.69 45.47,21.8 45.47,6.74 40.83,11.62 37.86,17.13 37.86,21.25 	"/>
	<polygon class="st2" points="47.84,25.08 60.6,25.08 69.74,7.16 58.79,12.46 54.53,17.06 50.77,20.48 	"/>
	<polygon class="st2" points="77.9,30.24 63.53,30.24 66.18,25.08 70.09,21.8 76.64,18.53 77.48,18.53 82.15,16.71 92.06,17.13 
		81.18,24.8 	"/>
	<polygon class="st2" points="71.59,44.19 71.59,34.67 76.19,33.84 83.93,33.84 93.14,37.92 83.62,40.11 	"/>
	<polygon class="st2" points="71.59,48.06 78.49,48.06 84.04,49.22 90.94,52.67 93.66,59.4 88.54,56.64 83.93,55.56 71.59,54.34 	
		"/>
	<polygon class="st2" points="71.59,57.69 79.12,58.42 88.43,66.37 90,71.81 83.62,67.52 77.79,65.22 71.59,64.59 	"/>
	<polygon class="st2" points="71.59,67.42 71.59,74.85 75.56,74.85 81.74,77.04 86.02,80.71 84.14,74.64 82.62,71.81 77.79,68.47 	
		"/>
	<polygon class="st2" points="72.21,77.67 68.97,80.71 78.81,90.33 76.3,81.65 	"/>
	<polygon class="st1" points="60.71,48.69 63.53,48.69 63.53,53.73 63.01,55.56 54.74,55.56 54.12,53.73 54.12,44.19 68.97,44.19 
		68.97,62.29 50.87,62.29 50.87,58.95 53.7,56.96 65.69,56.86 65.34,46.77 58.2,47.23 58.3,52.56 60.6,52.56 	"/>
	<polygon class="st1" points="30.47,32.37 34.97,29.13 34.97,36.24 30.47,36.24 	"/>
	<polygon class="st1" points="38.84,32.27 38.84,35.2 45.47,35.2 45.47,27.04 	"/>
	<polygon class="st1" points="48.88,30.24 60.39,30.24 54.64,35.2 48.88,35.2 	"/>
	<polygon class="st1" points="61.75,35.2 68.97,35.2 68.97,40.95 56.52,40.95 	"/>
	<polygon class="st1" points="27.23,33.84 27.23,46.7 22.31,45.03 13.42,36.87 24.28,36.73 	"/>
	<polygon class="st3" points="18.23,50.52 12.13,50.52 9.13,43.04 9.13,36.87 18.23,44.93 	"/>
	<polygon class="st4" points="27.85,21.91 27.85,30.24 34.97,25.57 34.97,21.91 32.04,17.93 	"/>
	<polygon class="st4" points="25.55,23.48 20.85,30.24 20.85,35.2 25.55,31.95 	"/>
	<polygon class="st5" points="31.41,39.01 34.97,39.01 34.97,47.23 30.99,47.23 	"/>
	<rect x="38.84" y="39.01" class="st5" width="4.39" height="8.21"/>
	<polygon class="st5" points="46.79,39.01 50.87,39.01 50.87,49.63 47.21,49.63 	"/>
	<polygon class="st5" points="42.71,49.63 37.86,49.63 42.71,55.07 	"/>
	<polygon class="st5" points="35,63.93 34.93,66.58 30.47,66.58 30.47,63.86 	"/>
	<polygon class="st5" points="32.04,69.77 34.86,70.98 32.04,74.46 36.43,79.56 26.84,79.56 22.08,74.95 25.99,74.95 	"/>
	<path d="M57.99,62.29h-7.11c0,0,0.21,5.54,0,13.08c-0.69,4.18,14.75,7.95,14.08-0.71c-1.42,3.53-8.43,4.06-11.36,0l-0.1-5.99
		c0,0-2.41,0,1.15,0c0,4.6,13.39,5.99,11.4-1.26c-1.05,1.88-2.51,3.55-8.27,1.78C57.46,65.12,57.99,62.29,57.99,62.29z"/>
	<path d="M40.83,67.42c0,0,6.91,10.99,10.88,12.14c-3.52,0-5.91,0.05-7.53,0.12c-1.73,0.07-3.17-1.3-3.2-3.03L40.83,67.42z"/>
	<polygon class="st6" points="23.2,64.75 25.97,71.1 27.85,69.09 27.85,65.85 25.55,64.75 	"/>
	<polygon class="st7" points="20.85,77.67 16.97,77.67 11.01,83.01 11.01,86.67 15.93,93.26 20.85,93.26 27.23,86.67 27.23,82.8 	
		"/>
	<polygon points="20.85,77.67 15.2,82.28 15.2,86.57 20.85,93.26 27.23,86.67 27.23,82.8 	"/>
	<rect x="19.66" y="82.83" class="st2" width="7.57" height="4.18"/>
	<polygon class="st2" points="29.58,82.83 36.43,82.83 36.43,89.6 34.39,89.6 34.24,92.37 31.67,92.37 31.73,89.6 29.58,89.6 	"/>
	<polygon points="36.43,86.77 29.58,86.77 29.58,89.6 31.73,89.6 31.67,92.37 34.24,92.37 34.39,89.6 36.43,89.6 	"/>
	<polygon class="st2" points="40.29,82.83 47.14,82.83 47.14,89.6 45.1,89.6 44.94,92.37 42.38,92.37 42.43,89.6 40.29,89.6 	"/>
	<polygon points="47.14,86.77 40.29,86.77 40.29,89.6 42.43,89.6 42.38,92.37 44.94,92.37 45.1,89.6 47.14,89.6 	"/>
	<polygon class="st2" points="51.19,82.83 58.04,82.83 58.04,89.6 56,89.6 55.84,92.37 53.28,92.37 53.33,89.6 51.19,89.6 	"/>
	<polygon points="58.04,86.77 51.19,86.77 51.19,89.6 53.33,89.6 53.28,92.37 55.84,92.37 56,89.6 58.04,89.6 	"/>
	<polygon class="st2" points="61.33,82.83 68.19,82.83 68.19,89.6 66.15,89.6 65.99,92.37 63.43,92.37 63.48,89.6 61.33,89.6 	"/>
	<polygon points="68.19,86.77 61.33,86.77 61.33,89.6 63.48,89.6 63.43,92.37 65.99,92.37 66.15,89.6 68.19,89.6 	"/>
	<polygon class="st5" points="37.86,17.13 45.47,17.13 45.47,6.74 40.83,11.62 	"/>
	<polygon class="st5" points="54.53,17.06 58.79,12.46 69.74,7.16 64.65,17.13 	"/>
	<polygon class="st5" points="77.48,18.53 81.18,24.8 92.06,17.13 82.15,16.71 	"/>
	<polygon class="st5" points="83.93,33.84 83.62,40.11 93.14,37.92 	"/>
	<polygon class="st5" points="84.04,49.22 83.93,55.56 88.54,56.64 93.66,59.4 90.94,52.67 	"/>
	<polygon class="st5" points="83.93,62.29 83.62,67.52 90,71.81 88.43,66.37 	"/>
	<polygon class="st5" points="82.62,71.81 81.74,77.04 86.02,80.71 84.14,74.64 	"/>
	<polygon class="st5" points="76.3,81.65 73.28,84.93 78.81,90.33 	"/>
</g>
</svg>
